<svg xmlns="http://www.w3.org/2000/svg" viewBox="0 0 500 500"><g id="freepik--background-simple--inject-65"><path d="M444.36,87.64l-2.6-4.29C419.84,47.22,380.19,25.44,338.4,28.08a109.53,109.53,0,0,0-16,2.2c-38,8.13-71.06,36.87-84.77,73.67-8.06,21.65-10.31,46.57-25.61,63.75-19.9,22.36-53.7,23.06-83.42,22.13s-63.53-.13-83.34,22.31C32.86,226.2,28.91,246.19,29.91,265c2.65,49.85,37.38,94.41,81.56,116.57S207.64,405.72,256,396c67.72-13.65,132.12-51.14,170.84-109S475.33,150.14,444.36,87.64Z" style="fill:#ebebeb"></path></g><g id="freepik--speech-bubble--inject-65"><path d="M110.77,265.13l-8.66-15.27a40.86,40.86,0,1,0-9.79,10.9l0,0Z" style="fill:#fff"></path><path d="M110.77,265.13l-18.5-4.22-.19-.05.12-.16v0l.19.18a41.53,41.53,0,0,1-8.4,5.07,40.85,40.85,0,0,1-11.2,3.2,38.16,38.16,0,0,1-6.47.33c-1.11-.07-2.25-.09-3.39-.19l-3.45-.52A41.23,41.23,0,0,1,34,252.36a40.67,40.67,0,0,1-6.9-15.78,41.54,41.54,0,0,1,.48-18.17,40.13,40.13,0,0,1,8.76-16.8L38,199.77c.55-.62,1.21-1.13,1.8-1.69s1.18-1.14,1.85-1.62l2-1.46a17.88,17.88,0,0,1,2-1.35l2.08-1.25,2.17-1.06a18.67,18.67,0,0,1,2.19-1,41.58,41.58,0,0,1,18.31-2.81,40.24,40.24,0,0,1,16.8,5,41.47,41.47,0,0,1,19.39,23.86,44.38,44.38,0,0,1,1.78,13.29,40.75,40.75,0,0,1-2,11.47,41.79,41.79,0,0,1-4.1,8.79v-.13l8.55,15.33L102,249.93l0-.07,0-.06A40.65,40.65,0,0,0,108,229.66a44.15,44.15,0,0,0-1.8-13.16,41.1,41.1,0,0,0-19.24-23.56,39.84,39.84,0,0,0-16.61-4.88,41.13,41.13,0,0,0-18.08,2.79,18.18,18.18,0,0,0-2.16,1l-2.15,1-2,1.24a17.92,17.92,0,0,0-2,1.33l-1.93,1.45c-.66.47-1.22,1.07-1.83,1.59s-1.23,1.07-1.77,1.68L36.69,202A39.8,39.8,0,0,0,28,218.53a41.16,41.16,0,0,0-.49,17.95,40.3,40.3,0,0,0,6.8,15.6,40.88,40.88,0,0,0,25.22,16.27l3.41.52c1.13.1,2.26.13,3.36.2a37.55,37.55,0,0,0,6.41-.3,41.07,41.07,0,0,0,11.12-3.13,41.7,41.7,0,0,0,8.37-5l.78-.6-.6.78v0l-.08-.21Z" style="fill:#263238"></path><polygon points="51.93 229.11 56.3 224.74 64.73 232.23 81.28 216.31 85.34 220.68 64.11 240.66 51.93 229.11" style="fill:#C66930"></polygon></g><g id="freepik--Plant--inject-65"><path d="M384,427.12s-19.65-22.62-27.06-45.23-3.89-20-3.89-20,10,22,17.61,32.58,21.13,26.18,21.13,26.18Z" style="fill:#455a64"></path><path d="M387.87,365.39a1.14,1.14,0,0,0-2.13.73c1.19,7.94,3.78,26.58,3.68,38.67-.13,15.71,0,21.78,0,21.78h8.18s-1.46-32.47-3.3-42.37C393,377.26,390.26,369.56,387.87,365.39Z" style="fill:#455a64"></path><path d="M392.33,423.93a86.83,86.83,0,0,0,6.73-24.42c.67-5.78-.53-13.59-2.32-24a64.93,64.93,0,0,1-1-11.55,2,2,0,0,1,3.66-.92c1,1.76,3.85,7.78,4.57,11.55,2,10.29,4.22,15.44,2.51,25.21s-8.05,24.81-8.05,24.81Z" style="fill:#455a64"></path><path d="M399.69,424.59s21.58-46.36,23.07-53.24,6.58-22.72,7.18-21.83,1.49,9.27-2.39,18.84S407.06,426,407.06,426h-7.37" style="fill:#455a64"></path><path d="M390,422.52a4.86,4.86,0,0,1-.6-.42c-.38-.29-1-.7-1.67-1.27-1.44-1.13-3.45-2.85-5.8-5.12a97.27,97.27,0,0,1-15.65-20.09,131.15,131.15,0,0,1-10.68-23.14c-1.09-3.08-1.88-5.6-2.39-7.35-.27-.88-.45-1.56-.58-2a3.76,3.76,0,0,1-.16-.72,5.44,5.44,0,0,1,.25.69c.17.5.38,1.16.66,2,.56,1.74,1.4,4.24,2.52,7.3a139.76,139.76,0,0,0,10.78,23,101.81,101.81,0,0,0,15.48,20.1c2.31,2.29,4.28,4,5.68,5.21.69.59,1.25,1,1.62,1.34A4,4,0,0,1,390,422.52Z" style="fill:#263238"></path><path d="M392.32,400.28a9.54,9.54,0,0,1-.19-1.36c-.1-1-.24-2.21-.4-3.72-.34-3.14-.87-7.46-1.63-12.21s-1.62-9-2.28-12.12c-.32-1.48-.58-2.71-.78-3.65a7.89,7.89,0,0,1-.25-1.35,7.76,7.76,0,0,1,.42,1.31c.24.85.56,2.09.93,3.62.74,3.07,1.64,7.35,2.41,12.11s1.25,9.11,1.51,12.26c.13,1.57.21,2.85.25,3.73A6.71,6.71,0,0,1,392.32,400.28Z" style="fill:#263238"></path><path d="M397.38,362.66a3.29,3.29,0,0,1,.25.59c.17.43.38,1,.65,1.72s.61,1.67.92,2.76.74,2.32,1.05,3.71c.17.7.35,1.42.54,2.18s.31,1.56.47,2.39c.35,1.64.57,3.43.83,5.3a84.73,84.73,0,0,1,.52,12.29,87.07,87.07,0,0,1-1.39,12.22c-.4,1.85-.74,3.61-1.21,5.23-.23.81-.41,1.6-.65,2.35l-.69,2.13c-.41,1.37-.91,2.57-1.31,3.63s-.78,2-1.12,2.69l-.77,1.67a5,5,0,0,1-.29.57,2.29,2.29,0,0,1,.21-.61c.17-.43.4-1,.69-1.7s.68-1.64,1-2.71.85-2.27,1.24-3.64l.66-2.13c.23-.75.4-1.54.62-2.35.45-1.61.78-3.37,1.16-5.21a91.09,91.09,0,0,0,1.35-12.16,90.12,90.12,0,0,0-.48-12.22c-.25-1.86-.45-3.64-.78-5.28-.16-.82-.28-1.63-.45-2.38s-.34-1.49-.5-2.18c-.29-1.4-.69-2.62-1-3.72s-.59-2-.85-2.77-.42-1.31-.56-1.75A2.68,2.68,0,0,1,397.38,362.66Z" style="fill:#263238"></path><path d="M429.69,350.45a.66.66,0,0,1,0,.21l-.09.6c-.1.53-.22,1.32-.43,2.31-.41,2-1.11,4.87-2.19,8.35s-2.55,7.57-4.29,12.05-3.77,9.38-5.68,14.58-3.44,10.27-4.85,14.88-2.72,8.74-4,12.15a78.48,78.48,0,0,1-3.41,7.93c-.44.92-.84,1.6-1.09,2.07l-.3.53a.74.74,0,0,1-.12.18s0-.07.08-.2.15-.33.26-.55c.23-.48.6-1.18,1-2.11.87-1.84,2-4.54,3.26-8s2.53-7.55,3.9-12.17,2.88-9.69,4.83-14.9,3.95-10.11,5.71-14.58,3.27-8.54,4.38-12,1.86-6.31,2.33-8.29c.23-1,.38-1.76.51-2.28.05-.24.1-.44.14-.6A.63.63,0,0,1,429.69,350.45Z" style="fill:#263238"></path><path d="M363.17,340.21a1.86,1.86,0,0,0-3.06,1.9,53.6,53.6,0,0,0,2.71,7c3,6.3,11.68,28.92,15.76,41.33S388.4,426,388.4,426l8.71-1.41s-8-38.07-15.75-51.78C375.1,361.78,368.85,345.86,363.17,340.21Z" style="fill:#455a64"></path><path d="M381,398.18a5.21,5.21,0,0,1,.45,1.05c.26.68.61,1.68,1,2.92.8,2.48,1.79,6,2.78,9.81s1.8,7.36,2.38,9.91c.26,1.2.48,2.21.65,3a5.16,5.16,0,0,1,.18,1.12,5.48,5.48,0,0,1-.35-1.07c-.22-.8-.48-1.8-.8-3-.67-2.62-1.54-6.06-2.51-9.87s-1.92-7.32-2.64-9.83l-.86-3A5.31,5.31,0,0,1,381,398.18Z" style="fill:#263238"></path><path d="M392.78,425.3a.68.68,0,0,1,0-.24c0-.18-.06-.4-.1-.68-.09-.6-.18-1.5-.36-2.64-.32-2.29-.89-5.58-1.82-9.6a137.66,137.66,0,0,0-4.08-13.92c-1.79-5.15-4-10.73-6.57-16.5-5.12-11.52-10.24-21.75-13.6-29.3-1.7-3.77-3-6.85-3.88-9-.44-1.07-.76-1.91-1-2.47l-.24-.65c-.06-.15-.08-.23-.07-.23a1.22,1.22,0,0,1,.11.21l.28.63,1.06,2.44c.92,2.12,2.28,5.18,4,8.93,3.43,7.52,8.59,17.71,13.73,29.26,2.54,5.77,4.77,11.37,6.54,16.55a130.79,130.79,0,0,1,4,14c.9,4.05,1.42,7.36,1.69,9.66.16,1.15.21,2,.27,2.65,0,.28,0,.51,0,.69S392.78,425.3,392.78,425.3Z" style="fill:#263238"></path><path d="M397.11,424.59a8.44,8.44,0,0,1-.29-1.46c-.18-1-.41-2.37-.68-4-.6-3.37-1.52-8-2.84-13.07s-2.77-9.57-3.9-12.81L388,389.42a8.39,8.39,0,0,1-.46-1.42,11.33,11.33,0,0,1,.63,1.35c.37.89.9,2.17,1.5,3.78a128.07,128.07,0,0,1,4,12.8,133.79,133.79,0,0,1,2.71,13.14c.25,1.7.44,3.08.53,4A9.13,9.13,0,0,1,397.11,424.59Z" style="fill:#263238"></path><rect x="380.99" y="423.34" width="33.99" height="41.41" style="fill:#C66930"></rect><g style="opacity:0.30000000000000004"><rect x="380.99" y="423.34" width="33.99" height="41.41"></rect></g><rect x="373.98" y="423.34" width="30.16" height="41.41" style="fill:#C66930"></rect></g><g id="freepik--Character--inject-65"><polygon points="207.14 308.21 195.39 303.87 150.43 302.54 139.99 305.38 141.36 330.81 164.96 345.86 187.84 345.4 202.23 332.29 205.43 319.3 207.14 308.21" style="fill:#ffbe9d"></polygon><path d="M73.78,347.16a153.47,153.47,0,0,1,9.41-16.81,38.84,38.84,0,0,1,24.23-17.05l37.72-10.22s2.57,25.44,28.51,25.44S200.12,305,200.12,305l47.5,17.36c1.5.58,11.63,4.09,23.41,29.35C282.25,375.73,287.16,388,287.16,388l-44.81,12-3,41.39,1,23.1-136.5-.3.76-26.41L104,394.2l-2.86,5.39-42.62-17.1S62.73,369.91,73.78,347.16Z" style="fill:#C66930"></path><path d="M103.32,371.61c-.2,0-.07,14.63.28,32.66s.79,32.66,1,32.65.08-14.62-.27-32.66S103.52,371.6,103.32,371.61Z" style="fill:#263238"></path><g style="opacity:0.30000000000000004"><path d="M236.3,375.87c-2.12-2.33-5.41-3.11-8.5-3.74-35.12-7.21-71.34-4.16-106.92.29-4.42.55-9.29,1.48-11.95,5-1.93,2.58-.69,6-.88,9.21-.93,16.49,1.22,34.06,4.49,50.25L233.74,435c4.15-12.56,5.16-33.87,5.23-48.34C239,382.85,238.86,378.67,236.3,375.87Z"></path></g><path d="M267.72,346.27l-.39.35-1.2,1a18.79,18.79,0,0,1-2,1.52l-1.35.89-.74.49-.84.45a33.42,33.42,0,0,1-3.88,1.92,45.29,45.29,0,0,1-4.83,1.77,45.82,45.82,0,0,1-12.4,1.72,43.91,43.91,0,0,1-14.93-2.63c-.33-.12-.66-.22-1-.35l-.95-.42-1.92-.87c-.64-.29-1.25-.68-1.88-1s-1.28-.67-1.88-1.1c-1.18-.85-2.45-1.63-3.6-2.6s-2.31-1.94-3.47-2.94a35,35,0,0,0-7.62-5.37,19.27,19.27,0,0,0-4.56-1.46,21.46,21.46,0,0,0-4.88-.2,30.48,30.48,0,0,0-9.71,2.58,59.14,59.14,0,0,0-9.12,5c-5.88,3.88-11.52,8.07-17.88,10.37a25.27,25.27,0,0,1-14.48,1.09,31.55,31.55,0,0,1-4.5-1.31,62.41,62.41,0,0,1-15.1-8.68c-4.41-3.23-8.43-6.33-12.4-8.71A38.62,38.62,0,0,0,98.8,332.9a26.61,26.61,0,0,0-9.34-.64,18.82,18.82,0,0,0-5.72,1.55,14.52,14.52,0,0,0-1.39.67l-.48.24a5,5,0,0,1,.45-.28,10.6,10.6,0,0,1,1.38-.73,18.58,18.58,0,0,1,5.74-1.65,26.79,26.79,0,0,1,9.42.55,39,39,0,0,1,11.54,4.86c4,2.38,8,5.47,12.46,8.68a62.43,62.43,0,0,0,15,8.58,31.06,31.06,0,0,0,4.44,1.28,24.24,24.24,0,0,0,4.68.56,25.54,25.54,0,0,0,9.53-1.65c6.26-2.27,11.87-6.43,17.77-10.32a58.83,58.83,0,0,1,9.2-5.09,30.92,30.92,0,0,1,9.87-2.61,21.47,21.47,0,0,1,5,.22,19.24,19.24,0,0,1,4.68,1.5,35.4,35.4,0,0,1,7.72,5.46c1.16,1,2.3,2,3.45,2.94s2.39,1.73,3.56,2.57c.59.43,1.24.73,1.85,1.1s1.22.72,1.86,1l1.9.85.94.43c.31.13.64.23,1,.34A43.35,43.35,0,0,0,240.07,356a45.9,45.9,0,0,0,12.32-1.63,44,44,0,0,0,4.82-1.72,34.28,34.28,0,0,0,3.87-1.86l.84-.44.75-.48L264,349a19.73,19.73,0,0,0,2-1.47l1.23-.95Z" style="fill:#fff"></path><path d="M246.24,374.86a3.92,3.92,0,0,1-.44.2l-1.33.55a21.78,21.78,0,0,1-5.4,1.09,29.49,29.49,0,0,1-8.67-.84,55.64,55.64,0,0,1-10.84-4c-3.87-1.83-7.95-4.14-12.52-6.21s-9.67-4-15.3-4.06a25.56,25.56,0,0,0-8.45,1.31,50.82,50.82,0,0,0-8.23,3.61c-2.72,1.43-5.42,3-8.26,4.46a44.56,44.56,0,0,1-9,3.64,29.26,29.26,0,0,1-9.65.89,40,40,0,0,1-9.24-1.84A70.65,70.65,0,0,1,123,365.9c-4.79-3-9.2-6.08-13.49-8.69A68.81,68.81,0,0,0,97.08,351c-8-2.92-15.2-2.94-19.81-1.84a26.53,26.53,0,0,0-5.18,1.77l-1.27.66-.44.21s.14-.1.42-.26l1.25-.71a25.24,25.24,0,0,1,5.18-1.87c4.63-1.17,11.87-1.21,20,1.7a68.71,68.71,0,0,1,12.54,6.21c4.31,2.6,8.73,5.66,13.51,8.65a71.05,71.05,0,0,0,15.84,7.73A40,40,0,0,0,148.2,375a28.82,28.82,0,0,0,9.49-.89,44.15,44.15,0,0,0,8.88-3.59c2.81-1.45,5.52-3,8.25-4.45a52.51,52.51,0,0,1,8.32-3.64,26.19,26.19,0,0,1,8.61-1.31c5.74.12,10.92,2.07,15.47,4.14s8.65,4.43,12.5,6.28a56.06,56.06,0,0,0,10.75,4,29.66,29.66,0,0,0,8.59.92,23.27,23.27,0,0,0,5.38-1l1.34-.5C246.08,374.9,246.24,374.86,246.24,374.86Z" style="fill:#fff"></path><path d="M278.22,367.23a7,7,0,0,1-1,1c-.34.32-.76.7-1.29,1.12s-1.09.91-1.78,1.39a45.27,45.27,0,0,1-5,3.16,45.71,45.71,0,0,1-13.55,4.83,43,43,0,0,1-5.84.7c-.84.06-1.6,0-2.26.05s-1.24,0-1.71-.05a9,9,0,0,1-1.45-.14,6.92,6.92,0,0,1,1.45-.06c.47,0,1,0,1.7,0s1.41,0,2.24-.13a49.17,49.17,0,0,0,5.78-.8,53.34,53.34,0,0,0,6.89-1.9,54.63,54.63,0,0,0,6.53-2.88,51.34,51.34,0,0,0,5-3c.69-.46,1.28-.93,1.81-1.32s1-.75,1.34-1A10,10,0,0,1,278.22,367.23Z" style="fill:#fff"></path><path d="M128.42,254.22s-2.85,3.9-2.8,10.93c0,3.77,2.59,11.41,9.28,11.79-1.77,10.78,5.12,18.74,16.6,18.76s24.63-19.69,35.27-24l30.88-8.16c2.72-.63,3.83-3.94,3.78-6.72s-.76-5.68.22-8.29c1.35-3.57,5.49-5.48,6.9-9,1.61-4-.88-8.51-3.75-11.77s-6.36-6.36-7.27-10.6c-.84-3.91.66-8.31-1.29-11.79-2.4-4.29-8.68-4.82-11.6-8.77-1.41-1.92-1.85-4.41-3.25-6.34-2.38-3.28-7-4.14-11-3.69s-7.9,1.89-11.94,2.19c-5.55.4-11.28-1.39-16.6.21-5.87,1.78-9.45,7-13.26,12l-5,5.85a21.89,21.89,0,0,1-3.31,2.71c-2.1,1.36-4.49,2.3-6.29,4a9.83,9.83,0,0,0,.68,14.15,10.49,10.49,0,0,0-7,10.31s-.55,5.12,2.69,7.4C130.36,245.41,125.71,248.91,128.42,254.22Z" style="fill:#263238"></path><path d="M149.11,264.68c-2.55-7.84-5.06-15.73-6.22-23.89s-.92-16.65,2-24.37c.44-1.18,4.15-9,5.39-8.91.89.09-1.4,7.42-.95,8.19,4.29,7.36,5.45,16.21,4.77,24.7a112.07,112.07,0,0,1-4.94,24.28" style="fill:#263238"></path><path d="M171.16,326.17c-12.77-.27-22-21.21-22-21.21l-.83-71.71c-.68-20.65,10.78-38.25,31.44-38.35l1.91.1a36.93,36.93,0,0,1,34.95,35.88c.48,17.9.79,37.69.16,47.24-1.31,19.79-21.27,21.8-21.27,21.8s-.12,4.59-.18,10.41c-.13,13.07-19,16.29-24.15,15.84Z" style="fill:#ffbe9d"></path><path d="M195.49,299.92s-12.52.07-25.37-9c0,0,5.51,14.73,25.36,14Z" style="fill:#eb996e"></path><path d="M206.54,247.84a2.82,2.82,0,0,1-2.88,2.71,2.7,2.7,0,0,1-2.77-2.71,2.82,2.82,0,0,1,2.87-2.71A2.71,2.71,0,0,1,206.54,247.84Z" style="fill:#263238"></path><path d="M211.93,238.87c-.37.35-2.43-1.35-5.47-1.5s-5.35,1.24-5.66.85c-.16-.17.24-.82,1.25-1.47a7.7,7.7,0,0,1,4.56-1.14,7.43,7.43,0,0,1,4.32,1.65C211.83,238,212.11,238.72,211.93,238.87Z" style="fill:#263238"></path><path d="M179.34,247.12a2.83,2.83,0,0,1-2.88,2.7,2.71,2.71,0,0,1-2.78-2.7,2.84,2.84,0,0,1,2.88-2.71A2.72,2.72,0,0,1,179.34,247.12Z" style="fill:#263238"></path><path d="M182.07,238.5c-.37.35-2.43-1.35-5.47-1.5s-5.36,1.25-5.67.86c-.15-.18.24-.82,1.25-1.48a7.82,7.82,0,0,1,4.56-1.14,7.42,7.42,0,0,1,4.33,1.66C182,237.66,182.25,238.35,182.07,238.5Z" style="fill:#263238"></path><path d="M191.73,262.46c0-.17,1.9-.39,5-.62.79,0,1.53-.16,1.69-.68a4,4,0,0,0-.4-2.33l-2-6c-2.74-8.59-4.67-15.64-4.33-15.75s2.85,6.77,5.59,15.37c.66,2.12,1.29,4.13,1.88,6.07a4.47,4.47,0,0,1,.24,3.07,1.91,1.91,0,0,1-1.34,1.06,5.42,5.42,0,0,1-1.33.12C193.64,262.73,191.73,262.64,191.73,262.46Z" style="fill:#263238"></path><path d="M182.66,264.09c.5,0,.33,3.3,3,5.79s6.23,2.32,6.23,2.79c0,.21-.82.6-2.3.56a8.24,8.24,0,0,1-5.22-2.14,7.22,7.22,0,0,1-2.33-4.85C182,264.86,182.44,264.06,182.66,264.09Z" style="fill:#263238"></path><path d="M182.56,226.15c-.34.81-3.36.26-6.95.5s-6.53,1-7,.29c-.19-.37.36-1.12,1.56-1.86a12.14,12.14,0,0,1,10.6-.6C182.09,225.08,182.71,225.77,182.56,226.15Z" style="fill:#263238"></path><path d="M211.22,228.69c-.58.66-2.63-.17-5.15-.33s-4.68.21-5.13-.54c-.2-.36.17-1,1.14-1.64a7.46,7.46,0,0,1,8.28.7C211.22,227.64,211.47,228.37,211.22,228.69Z" style="fill:#263238"></path><path d="M149.13,248c-.33-.16-13.39-4.75-13.68,8.81s13.37,11.05,13.41,10.66S149.13,248,149.13,248Z" style="fill:#ffbe9d"></path><path d="M144.83,262.24c-.06-.05-.24.16-.65.33a2.34,2.34,0,0,1-1.76,0c-1.42-.56-2.58-2.86-2.59-5.3a7.76,7.76,0,0,1,.73-3.37,2.72,2.72,0,0,1,1.82-1.77,1.2,1.2,0,0,1,1.38.68c.17.38.08.65.15.67s.3-.22.2-.78a1.46,1.46,0,0,0-.52-.86,1.79,1.79,0,0,0-1.29-.38,3.35,3.35,0,0,0-2.52,2,8,8,0,0,0-.9,3.76c0,2.74,1.37,5.32,3.32,5.93a2.54,2.54,0,0,0,2.17-.31C144.8,262.56,144.87,262.26,144.83,262.24Z" style="fill:#eb996e"></path><path d="M208.12,208.31c2.21-1.18-4.29-8.38-9.65-10.89-8.1-3.8-20.52-6.24-28.06-4.2-9.08,2.44-16.65,6.85-21.3,15s-6.48,17.74-6.34,27.15c0,2.87.31,5.86,1.81,8.31,1.85,3,5.46,4.95,5.25,9.09a5.61,5.61,0,0,0,1.36,4.15c2.44,2.67,5.51.23,6.94-2.23,3.05-5.28,3.46-11.61,3.8-17.69.24-4.33.47-8.74-.69-12.91-.64-2.27-1.68-4.42-2.18-6.72s-.41-4.9,1-6.75a8.39,8.39,0,0,1,1.12-1.1,14.11,14.11,0,0,1,14.06-2.49c7.6,2.79,20.59,7,24,4.45,4.94-3.67,6.15-6.08,6.15-6.08Z" style="fill:#263238"></path><path d="M171.14,191.38c7.49-2.39,16-2.15,22.89,1.55,3.68,2,7,5.08,8.06,9.11s-.7,9-4.58,10.47l-.27.17c-5.81,1.87-9.56,1-15.3-1-4.83-1.75-9.11-4.8-13.95-6.51a27.53,27.53,0,0,0-16.12-.68C157.13,198.64,163.66,193.78,171.14,191.38Z" style="fill:#263238"></path><path d="M145.36,204.79c.12.1,1.21-1.19,3.41-2.72a19.14,19.14,0,0,1,4.11-2.2,12.62,12.62,0,0,1,5.52-.93,18.49,18.49,0,0,1,9.45,3.9c2.1,1.66,3.07,3.06,3.2,3s-.15-.41-.59-1a14.53,14.53,0,0,0-2.2-2.41,17.49,17.49,0,0,0-9.79-4.31,12.78,12.78,0,0,0-5.9,1.05,18.22,18.22,0,0,0-4.18,2.46C146.21,203.27,145.28,204.74,145.36,204.79Z" style="fill:#455a64"></path><path d="M186.67,190.15a37.48,37.48,0,0,0,3.59,1.35A29.37,29.37,0,0,1,204.17,203a38.2,38.2,0,0,0,2,3.27,10.87,10.87,0,0,0-1.47-3.6,25.66,25.66,0,0,0-14.24-11.73A10.39,10.39,0,0,0,186.67,190.15Z" style="fill:#455a64"></path><path d="M127.8,238.18s.5.22,1.43.48a10.62,10.62,0,0,0,4,.26,16.38,16.38,0,0,0,5.73-1.86c2.05-1,4.15-2.44,6.48-3.76a19.71,19.71,0,0,1,7.08-2.63,9.41,9.41,0,0,1,6.06,1.1,7.1,7.1,0,0,1,2.91,3,4.92,4.92,0,0,1,.39,1.06c.05.26.07.39.05.4s-.15-.53-.62-1.37a7.18,7.18,0,0,0-2.91-2.74,9.17,9.17,0,0,0-5.81-.94,19.88,19.88,0,0,0-6.9,2.6c-2.3,1.31-4.42,2.72-6.51,3.74a16.38,16.38,0,0,1-5.91,1.8,9.94,9.94,0,0,1-4.14-.44,6.18,6.18,0,0,1-1-.45C127.91,238.27,127.79,238.2,127.8,238.18Z" style="fill:#455a64"></path><path d="M128.72,244.59a16.16,16.16,0,0,0,4.9.3,23.85,23.85,0,0,0,5.19-1.21c1.91-.64,4-1.51,6.19-2.29a22,22,0,0,1,6.5-1.4,12.47,12.47,0,0,1,5.35,1,8.3,8.3,0,0,1,3,2.17,5,5,0,0,1,.57.82c.12.19.17.3.15.31s-.29-.38-.87-1a8.71,8.71,0,0,0-3-2,12.35,12.35,0,0,0-5.18-.86,22.39,22.39,0,0,0-6.35,1.41c-2.2.77-4.26,1.63-6.21,2.26a22.9,22.9,0,0,1-5.31,1.12A12.81,12.81,0,0,1,130,245a6.42,6.42,0,0,1-1-.28C128.82,244.66,128.71,244.61,128.72,244.59Z" style="fill:#455a64"></path><path d="M224.1,230a2.56,2.56,0,0,1-.48,1.25,7.35,7.35,0,0,1-2.26,2.34,7.46,7.46,0,0,1-3.05,1.14,2.51,2.51,0,0,1-1.34-.07,12.69,12.69,0,0,0,4.1-1.51A13,13,0,0,0,224.1,230Z" style="fill:#455a64"></path><path d="M227.91,236.73a4.53,4.53,0,0,1-.7,1.86,10.17,10.17,0,0,1-3.33,3.48,10,10,0,0,1-4.56,1.56,4.57,4.57,0,0,1-2-.14c0-.09.76,0,1.94-.22a11.48,11.48,0,0,0,4.32-1.64,11.24,11.24,0,0,0,3.29-3.23C227.55,237.41,227.82,236.7,227.91,236.73Z" style="fill:#455a64"></path><path d="M283.27,389.16l18.29,36.72a26.82,26.82,0,0,1,2.78,13.23h0a26.77,26.77,0,0,1-26.73,25.46l-52.45-3-2.29-23.93L262.78,428l-15.47-29.23Z" style="fill:#ffbe9d"></path><path d="M262.78,428c0,.16,1.81-.14,4.71-.12a36.57,36.57,0,0,1,11.06,1.95,33.84,33.84,0,0,1,9.91,5.26c2.27,1.79,3.33,3.27,3.46,3.17s-.18-.43-.66-1.11a18.23,18.23,0,0,0-2.39-2.55,29.87,29.87,0,0,0-10-5.62,31.86,31.86,0,0,0-11.36-1.74,21.13,21.13,0,0,0-3.47.41A3.57,3.57,0,0,0,262.78,428Z" style="fill:#eb996e"></path><path d="M59.21,382.85S49.35,410.38,37,441a12.78,12.78,0,0,0-.59,1.91c-1.87,8.28,4.44,22.22,12.92,22.22l71-.7V441.21l-40.95-9,15.8-35Z" style="fill:#ffbe9d"></path><path d="M47.54,438.59c.1.12,1.5-1,4-2.41a37.21,37.21,0,0,1,21.35-4.83c2.84.22,4.58.61,4.62.46a3.67,3.67,0,0,0-1.19-.44,23,23,0,0,0-3.37-.66,32.85,32.85,0,0,0-21.74,4.92,22.88,22.88,0,0,0-2.76,2.05C47.82,438.22,47.5,438.54,47.54,438.59Z" style="fill:#eb996e"></path><path d="M233.13,436.21H222.87s-23.18-8.37-27.94-7.57c-4.29.72-20,11.16-23.08,13.22a1.94,1.94,0,0,0-.74.95h0a3.37,3.37,0,0,0,1.87,4.28l.33.14-.14.47a5.49,5.49,0,0,0-.24,1.87,2.27,2.27,0,0,0,4.21,1l-.59,1.05a2.5,2.5,0,0,0-.33,1.41l.05.95a2.58,2.58,0,0,0,1.78,2.31h0a2.56,2.56,0,0,0,2.69-.71c2-2.19,6.3-6.58,9.21-7.06a67.18,67.18,0,0,1,9.51-.48,3.22,3.22,0,0,1,3,2.06h0c-1.73.12-13.77,6.4-18,8.65a4.55,4.55,0,0,0-2.47,3.43c-.16,1.33.51,2.73,3.15,2.11,5.66-1.32,15.85-6,15.85-6s5.25-1.51,8.66.9c4.79,3.37,7,4.61,11.09,3.25a34.8,34.8,0,0,0,7.15-3.32l8.1-.81S243.61,439.15,233.13,436.21Z" style="fill:#ffbe9d"></path><path d="M202.54,440.12c0,.09-1.65-.43-4.36-.6a22.43,22.43,0,0,0-18.72,8c-1.75,2.08-2.5,3.61-2.58,3.56a5.84,5.84,0,0,1,.52-1.07,19,19,0,0,1,1.82-2.68,21.76,21.76,0,0,1,19-8.11,19.64,19.64,0,0,1,3.2.55A5.79,5.79,0,0,1,202.54,440.12Z" style="fill:#eb996e"></path><path d="M200.08,434.5a18.53,18.53,0,0,0-4.53-.79,19.82,19.82,0,0,0-10.54,3,42.23,42.23,0,0,0-8.49,7.19l-2.33,2.47a8,8,0,0,1-.88.88,5.81,5.81,0,0,1,.76-1c.51-.62,1.26-1.51,2.23-2.57a38.44,38.44,0,0,1,8.49-7.35,19.25,19.25,0,0,1,10.78-2.92,13.25,13.25,0,0,1,3.36.61,8.91,8.91,0,0,1,.87.34C200,434.43,200.09,434.48,200.08,434.5Z" style="fill:#eb996e"></path><path d="M105.3,436.94h10.26s23.17-8.37,27.94-7.58c4.29.73,20,11.16,23.08,13.23a1.94,1.94,0,0,1,.74,1h0a3.37,3.37,0,0,1-1.87,4.28l-.33.13.14.47a5.53,5.53,0,0,1,.24,1.87,2.27,2.27,0,0,1-4.21,1l.59,1.05a2.58,2.58,0,0,1,.33,1.41l-.05,1a2.58,2.58,0,0,1-1.78,2.31h0a2.56,2.56,0,0,1-2.69-.71c-2-2.19-6.3-6.58-9.21-7.07a68.7,68.7,0,0,0-9.51-.48,3.23,3.23,0,0,0-3,2.06h0c1.73.13,13.77,6.4,18,8.65a4.57,4.57,0,0,1,2.47,3.43c.16,1.33-.51,2.73-3.15,2.12-5.66-1.33-15.85-6-15.85-6s-5.25-1.5-8.66.9c-4.79,3.38-7,4.62-11.09,3.25a34.8,34.8,0,0,1-7.15-3.32l-8.1-.8S94.82,439.87,105.3,436.94Z" style="fill:#ffbe9d"></path><path d="M135.89,440.85c0,.09,1.65-.43,4.35-.6a22.43,22.43,0,0,1,18.73,8c1.75,2.07,2.5,3.6,2.58,3.56a5.84,5.84,0,0,0-.52-1.07,19,19,0,0,0-1.82-2.69,21.79,21.79,0,0,0-19-8.1,18.77,18.77,0,0,0-3.2.54A5.05,5.05,0,0,0,135.89,440.85Z" style="fill:#eb996e"></path><path d="M138.35,435.22a19.14,19.14,0,0,1,4.53-.79,19.76,19.76,0,0,1,10.54,3,42.55,42.55,0,0,1,8.49,7.18l2.32,2.47a7.38,7.38,0,0,0,.89.88,6.34,6.34,0,0,0-.76-1c-.51-.62-1.26-1.5-2.23-2.57a39.21,39.21,0,0,0-8.49-7.35,19.33,19.33,0,0,0-10.78-2.92,12.76,12.76,0,0,0-3.36.62c-.39.11-.67.26-.87.33S138.34,435.21,138.35,435.22Z" style="fill:#eb996e"></path><path d="M119.18,465.23H227a5.71,5.71,0,0,0,5.71-5.47l3.24-74.18a5.72,5.72,0,0,0-5.72-6h-114a5.72,5.72,0,0,0-5.72,5.95l3,74.18A5.71,5.71,0,0,0,119.18,465.23Z" style="fill:#e0e0e0"></path><path d="M119.18,465.23h-.26a4.81,4.81,0,0,1-.79-.08,5.65,5.65,0,0,1-2.76-1.31,5.88,5.88,0,0,1-2-4.48c-.09-2-.19-4.26-.3-6.82-.44-10.28-1.07-25.14-1.85-43.49q-.3-6.89-.61-14.41c-.1-2.51-.21-5.06-.32-7.67,0-.65-.07-1.29-.05-2a6,6,0,0,1,.47-2,6,6,0,0,1,4.8-3.57c.72-.06,1.39,0,2.08,0H148l79.05,0h2.63a6.8,6.8,0,0,1,2.66.41,6,6,0,0,1,3.57,3.86,7,7,0,0,1,.22,2.65l-.11,2.58c-.08,1.72-.15,3.43-.23,5.14q-.45,10.23-.88,20.15c-.58,13.21-1.14,25.95-1.68,38.09-.06,1.52-.13,3-.2,4.52,0,.75-.06,1.5-.1,2.24a8,8,0,0,1-.29,2.26,6,6,0,0,1-2.83,3.47,5.83,5.83,0,0,1-2.15.69c-.76.08-1.46,0-2.19,0l-16.74,0-30.06,0-43.53-.08-11.83-.05-3.08,0-1,0,1,0,3.08,0,11.83,0,43.53-.09,30.06,0h16.74c.72,0,1.46,0,2.14-.05a5.36,5.36,0,0,0,2-.64,5.49,5.49,0,0,0,2.6-3.2,7.48,7.48,0,0,0,.27-2.14c0-.74.07-1.49.1-2.24.06-1.5.13-3,.19-4.52.53-12.14,1.08-24.89,1.65-38.1q.43-9.9.87-20.15c.08-1.7.15-3.41.23-5.13l.11-2.58a6.47,6.47,0,0,0-.2-2.49,5.49,5.49,0,0,0-3.26-3.52,6.18,6.18,0,0,0-2.47-.37h-2.63l-79.05,0H117.59c-.68,0-1.39,0-2,0a5.51,5.51,0,0,0-4.46,3.31,5.57,5.57,0,0,0-.44,1.84c0,.63,0,1.3,0,1.95.1,2.6.2,5.16.3,7.66q.3,7.51.57,14.41c.72,18.36,1.29,33.22,1.69,43.5.1,2.57.18,4.85.26,6.82a5.71,5.71,0,0,0,4.61,5.75C118.82,465.23,119.18,465.2,119.18,465.23Z" style="fill:#263238"></path><path d="M167.28,423.73a5.9,5.9,0,1,0,5.9-5.91A5.9,5.9,0,0,0,167.28,423.73Z" style="fill:#fff"></path><path d="M244.19,356.84a2.69,2.69,0,0,1,0,.62v1.78c0,1.54,0,3.77-.11,6.53-.14,5.51-.43,13.13-.9,21.53s-1,16-1.45,21.51c-.23,2.7-.42,4.9-.55,6.51-.08.72-.14,1.3-.19,1.76a2.22,2.22,0,0,1-.1.62,3.28,3.28,0,0,1,0-.62c0-.46,0-1.05.08-1.78.1-1.6.23-3.81.4-6.52.33-5.56.79-13.14,1.29-21.51s.82-16,1.05-21.51c.11-2.71.21-4.92.28-6.53l.09-1.77A2.74,2.74,0,0,1,244.19,356.84Z" style="fill:#263238"></path></g><g id="freepik--Desk--inject-65"><path d="M484.78,465.23c0,.14-102.29.26-228.45.26s-228.47-.12-228.47-.26S130.13,465,256.33,465,484.78,465.08,484.78,465.23Z" style="fill:#263238"></path></g></svg>