<svg version="1.1" id="Layer_1" xmlns="http://www.w3.org/2000/svg" xmlns:xlink="http://www.w3.org/1999/xlink" x="0px" y="0px"
	 width="200" heigth="200" viewBox="0 0 400 400" enable-background="new 0 0 400 400" xml:space="preserve">
<path fill="#fff" opacity="0.5" stroke="none" 
	d="
M228.000000,1.000003 
	C285.593475,1.000000 343.186920,1.000000 401.000000,1.000000 
	C401.000000,58.020706 401.000000,115.041695 400.614807,172.747635 
	C399.827850,172.759933 399.155945,172.122345 399.063385,171.409546 
	C395.900848,147.051025 387.379761,124.518471 375.825745,102.654312 
	C375.161041,101.371162 374.485046,100.460236 373.903168,99.492691 
	C365.723724,85.891632 356.787415,72.873070 344.969788,61.648758 
	C334.383789,50.509129 322.844971,41.012264 309.974304,32.625481 
	C306.727997,30.557529 303.721619,28.648733 300.542328,27.093410 
	C292.774567,23.293377 284.926788,19.656837 276.931854,15.630709 
	C274.656982,14.491304 272.616089,13.471684 270.456909,12.894157 
	C259.002441,9.830358 247.518265,6.877563 235.815948,3.537401 
	C233.659851,3.123847 231.703339,3.228156 229.819595,2.906421 
	C229.124786,2.787753 228.601501,1.664865 228.000000,1.000003 
z"/>
<path fill="#fff" opacity="0.5" stroke="none" 
	d="
M401.000000,229.000000 
	C401.000000,286.259918 401.000000,343.519836 401.000000,401.000000 
	C344.645966,401.000000 288.291626,401.000000 231.144394,400.671814 
	C234.232666,399.173523 238.113861,398.003448 242.405777,396.906830 
	C253.875687,393.598022 264.934875,390.215759 276.357056,386.791840 
	C287.856995,380.853241 298.993927,374.956299 310.443481,368.912323 
	C322.995789,360.920593 334.438049,352.115967 344.358551,340.970245 
	C349.532074,335.309570 354.916046,330.153015 359.139069,324.176178 
	C365.554474,315.096497 371.164246,305.447540 377.425598,295.871399 
	C377.901398,295.235168 378.008423,294.735565 378.242737,294.305328 
	C388.204163,276.014221 395.151489,256.712585 398.147705,236.025055 
	C398.499451,233.596603 400.020844,231.337570 401.000000,229.000000 
z"/>
<path fill="#fff" opacity="0.5" stroke="none" 
	d="
M171.000000,401.000000 
	C114.405891,401.000000 57.811783,401.000000 1.000000,401.000000 
	C1.000000,343.979279 1.000000,286.958313 1.331090,229.135818 
	C2.454503,232.232910 3.216729,236.137909 4.044067,240.029053 
	C9.130111,263.949646 17.907038,286.391937 31.093409,307.438263 
	C40.093925,321.344147 49.670574,334.345490 62.082809,345.424683 
	C72.122124,353.538971 82.037430,361.344727 92.101929,369.466858 
	C101.166595,374.466919 110.082054,379.150574 119.331215,384.000916 
	C128.088638,387.147247 136.512360,390.126923 144.947769,393.071228 
	C144.959457,393.035889 144.886749,393.052063 144.973480,393.302795 
	C145.366028,393.650513 145.671844,393.747559 146.376984,393.915009 
	C154.183350,395.601501 161.590408,397.217590 169.399887,398.918152 
	C170.201538,399.668427 170.600769,400.334229 171.000000,401.000000 
z"/>
<path fill="#fff" opacity="0.5" stroke="none" 
	d="
M1.000000,173.000000 
	C1.000000,115.739647 1.000000,58.479294 1.000000,1.000000 
	C58.020706,1.000000 115.041695,1.000000 172.857117,1.334657 
	C170.433075,2.501795 167.214615,3.334276 163.586914,4.096900 
	C161.457474,4.352986 159.700409,4.549613 158.023483,5.027401 
	C151.001633,7.028041 144.003799,9.112973 136.616501,11.100918 
	C129.156418,14.078846 122.077019,17.122881 114.643135,20.200716 
	C106.191734,24.876900 98.094803,29.519283 89.652702,34.185684 
	C80.191200,41.767704 71.074875,49.325710 61.648544,57.018578 
	C49.436848,68.339272 39.294094,80.941910 30.575861,95.107376 
	C28.459990,98.681503 26.719088,102.128021 24.856941,105.507729 
	C13.462486,126.188202 5.730412,148.073502 2.893342,171.603119 
	C2.828963,172.137085 1.655906,172.537369 1.000000,173.000000 
z"/>
<path fill="#F8D364" opacity="1.000000" stroke="none" 
	d="
M1.000000,173.468658 
	C1.655906,172.537369 2.828963,172.137085 2.893342,171.603119 
	C5.730412,148.073502 13.462486,126.188202 24.856941,105.507729 
	C26.719088,102.128021 28.459990,98.681503 30.838406,95.435036 
	C31.613228,97.570618 31.970184,99.536674 31.974539,101.503502 
	C32.016804,120.592957 32.070663,139.682877 31.979382,158.772003 
	C31.894392,176.545319 31.491478,194.317841 31.495237,212.090652 
	C31.499208,230.862793 31.828291,249.634766 31.991077,268.407043 
	C32.021137,271.873718 31.995287,275.343170 31.892063,278.808289 
	C31.610928,288.245514 31.274555,297.681122 30.960072,307.117371 
	C17.907038,286.391937 9.130111,263.949646 4.044067,240.029053 
	C3.216729,236.137909 2.454503,232.232910 1.331090,228.667160 
	C1.000000,210.645767 1.000000,192.291550 1.000000,173.468658 
z"/>
<path fill="#D28549" opacity="1.000000" stroke="none" 
	d="
M401.000000,228.531342 
	C400.020844,231.337570 398.499451,233.596603 398.147705,236.025055 
	C395.151489,256.712585 388.204163,276.014221 378.242737,294.305328 
	C378.008423,294.735565 377.901398,295.235168 377.018494,295.825867 
	C375.535034,294.361694 374.100220,292.775299 374.097260,291.186249 
	C373.983582,230.007446 373.987274,168.828400 374.078674,107.649521 
	C374.080994,106.098877 375.239166,104.549957 375.858276,103.000229 
	C387.379761,124.518471 395.900848,147.051025 399.063385,171.409546 
	C399.155945,172.122345 399.827850,172.759933 400.614807,173.216293 
	C401.000000,191.354233 401.000000,209.708450 401.000000,228.531342 
z"/>
<path fill="#E7B159" opacity="1.000000" stroke="none" 
	d="
M171.468414,401.000000 
	C170.600769,400.334229 170.201538,399.668427 169.400543,398.460144 
	C169.003006,383.998810 169.007233,370.080048 169.200470,355.955627 
	C169.949783,355.798248 170.923996,355.696411 171.004547,355.918579 
	C171.615967,357.604889 172.052429,359.354614 172.498016,360.924500 
	C176.345291,361.253723 179.888672,361.556946 183.815491,361.893005 
	C180.554474,352.844696 180.554474,352.844696 174.833481,355.618744 
	C173.213501,353.790131 171.639832,352.013824 169.904663,349.839844 
	C169.496658,344.782593 169.250122,340.123016 169.401154,335.324402 
	C173.899689,333.301819 172.049271,329.617157 171.885773,326.852325 
	C171.582932,321.731049 172.102386,317.680969 177.898315,316.020630 
	C178.867188,315.743073 179.381119,313.877533 180.105286,312.745789 
	C178.793289,311.989441 177.551117,310.853607 176.147476,310.595367 
	C174.997620,310.383820 173.655502,311.217438 172.456406,311.570740 
	C171.253403,310.588806 170.130554,309.672302 169.007141,308.353760 
	C169.243393,295.383850 169.694229,282.815491 169.666214,270.248230 
	C169.625580,252.019363 169.160431,233.791870 169.023743,215.562683 
	C168.904724,199.690918 168.989944,183.817627 169.130035,167.693451 
	C170.070908,166.915939 170.866653,166.389969 172.035812,165.904312 
	C172.658905,165.963272 172.908600,165.981934 173.266724,166.340866 
	C174.076187,170.303375 175.886154,172.527939 179.650314,173.918991 
	C182.813477,175.087936 185.380966,177.868820 187.798187,179.971863 
	C186.259659,181.494156 184.295715,182.911484 184.166473,184.480011 
	C183.764038,189.363770 184.056732,194.304825 183.865707,199.499634 
	C176.979675,202.815308 176.671326,203.654465 181.021347,209.620941 
	C182.724258,211.956619 184.991531,213.880859 186.750061,216.263550 
	C185.665924,218.545456 184.176895,220.536255 184.114868,222.570572 
	C183.848053,231.320358 183.902756,240.084229 184.019638,248.840576 
	C184.291046,269.174866 184.666138,289.507782 184.700836,310.027954 
	C184.188400,311.552582 183.598572,312.961334 183.834686,314.214447 
	C184.412216,317.279968 185.595993,320.236115 186.107986,323.307617 
	C186.539490,325.896271 186.271225,328.593414 186.492416,331.227478 
	C186.716782,333.899384 188.010117,335.576630 191.010468,335.614929 
	C190.674362,339.315521 189.917191,342.618958 190.173462,345.841827 
	C190.317963,347.659119 192.131882,349.343719 193.135590,351.535950 
	C193.079376,355.310822 193.081345,358.637878 192.711853,362.105377 
	C191.579239,368.374725 190.369995,374.489532 190.177124,380.636261 
	C189.964615,387.408905 190.685638,394.210815 191.000000,401.000000 
	C184.645599,401.000000 178.291214,401.000000 171.468414,401.000000 
z"/>
<path fill="#E2A756" opacity="1.000000" stroke="none" 
	d="
M241.995056,396.833374 
	C238.113861,398.003448 234.232666,399.173523 230.675735,400.671814 
	C225.977905,401.000000 220.955811,401.000000 215.466858,400.555389 
	C214.997726,389.138367 215.084991,378.164429 214.901611,367.195038 
	C214.872360,365.446533 213.628174,363.718384 212.985275,361.655914 
	C213.000504,360.895966 212.976120,360.460876 213.184738,359.783722 
	C213.971298,357.833862 216.064148,355.862396 212.713806,354.535767 
	C212.910477,353.814728 213.005737,353.398804 213.317627,352.675659 
	C214.024612,346.704529 214.514969,341.040558 215.404327,335.320007 
	C218.948837,333.656036 222.362701,332.395874 225.109406,330.272644 
	C226.227966,329.407959 225.898117,326.669525 226.227264,324.783600 
	C224.497879,325.138184 222.693680,325.291809 221.058838,325.900360 
	C219.185165,326.597809 217.461761,327.699036 215.673065,328.624847 
	C214.781204,326.661316 213.889328,324.697784 212.933731,322.593994 
	C219.159653,319.851166 228.807266,322.094910 226.442627,310.927826 
	C225.170898,304.922089 222.591064,302.698456 216.002426,302.206299 
	C213.348648,293.089569 214.443451,284.396271 216.457443,275.811890 
	C224.748962,279.232269 232.874374,278.270844 241.014374,277.534180 
	C241.015076,287.167877 241.010834,296.382202 240.671173,305.743835 
	C233.453186,309.252869 229.549042,315.993530 230.093155,323.575470 
	C230.573868,330.273895 233.442001,333.444031 241.100525,336.097351 
	C241.243027,338.411835 241.127045,340.369659 241.494156,342.232300 
	C242.224686,345.938751 243.220963,349.592834 244.074554,353.620758 
	C243.401428,356.226715 242.761185,358.480499 242.094574,361.174744 
	C242.043823,373.354645 242.019440,385.094025 241.995056,396.833374 
M227.141556,356.736481 
	C228.306778,358.460022 229.472000,360.183563 230.637238,361.907104 
	C231.776733,360.916931 233.860992,359.919037 233.853012,358.938171 
	C233.837845,357.071869 232.626877,355.215271 231.912460,353.354645 
	C230.384705,354.232208 228.856949,355.109772 227.141556,356.736481 
M225.267883,350.403656 
	C222.974274,350.656067 218.867477,350.496674 218.700455,351.232025 
	C217.971573,354.441284 218.387054,357.910431 218.387054,361.285217 
	C218.811935,361.261902 219.236801,361.238617 219.661682,361.215302 
	C220.924850,359.281616 222.188019,357.347900 223.609482,355.171906 
	C223.000626,354.639923 222.090103,353.844391 220.982010,352.876251 
	C222.720810,352.179718 224.033066,351.654083 225.267883,350.403656 
z"/>
<path fill="#E4AA56" opacity="1.000000" stroke="none" 
	d="
M227.531342,1.000003 
	C228.601501,1.664865 229.124786,2.787753 229.819595,2.906421 
	C231.703339,3.228156 233.659851,3.123847 235.735077,3.955420 
	C235.588455,7.173923 235.052628,9.624111 235.038651,12.077274 
	C234.935623,30.150703 234.936783,48.224724 234.515015,66.231995 
	C221.352661,62.432026 208.327011,60.557697 195.006195,60.374916 
	C195.333237,51.474346 195.905228,43.032280 195.919556,34.589272 
	C195.932480,26.978243 195.287643,19.367785 195.026840,11.753859 
	C194.904190,8.173133 195.002075,4.584855 195.000000,1.000000 
	C205.687561,1.000000 216.375122,1.000000 227.531342,1.000003 
z"/>
<path fill="#E5AC58" opacity="1.000000" stroke="none" 
	d="
M216.079254,275.707550 
	C214.443451,284.396271 213.348648,293.089569 215.721252,302.347473 
	C210.810135,305.075806 208.503922,309.115540 207.404144,313.986938 
	C205.255356,323.504883 208.417618,332.323700 215.005310,335.376587 
	C214.514969,341.040558 214.024612,346.704529 213.015167,352.535950 
	C211.227127,352.772217 209.192322,352.378967 208.823349,352.990662 
	C207.317200,355.487427 209.942474,360.795624 212.945663,361.980804 
	C213.628174,363.718384 214.872360,365.446533 214.901611,367.195038 
	C215.084991,378.164429 214.997726,389.138367 215.000000,400.555389 
	C207.312424,401.000000 199.624832,401.000000 191.468628,401.000000 
	C190.685638,394.210815 189.964615,387.408905 190.177124,380.636261 
	C190.369995,374.489532 191.579239,368.374725 192.991608,362.046051 
	C194.955948,361.290192 196.269073,360.734131 197.845779,360.066437 
	C198.013153,358.818604 198.268311,356.916199 198.414368,355.827209 
	C196.395554,353.994568 194.794662,352.541321 193.193771,351.088074 
	C192.131882,349.343719 190.317963,347.659119 190.173462,345.841827 
	C189.917191,342.618958 190.674362,339.315521 191.252609,335.321045 
	C191.730270,330.865631 191.921799,327.131744 192.207275,323.405090 
	C192.474167,319.920959 191.657745,316.112732 196.807602,314.846832 
	C199.413864,314.206146 198.907608,311.752899 196.931580,310.263489 
	C195.932419,309.510376 194.577469,309.229248 193.466232,308.769043 
	C194.330933,300.674164 195.164871,300.097595 201.888687,302.159851 
	C202.772964,302.431030 204.629333,302.023834 204.845306,301.468201 
	C205.305252,300.284851 205.451828,297.867889 204.902695,297.591003 
	C202.093201,296.174377 199.021683,295.277435 196.032028,293.738373 
	C196.035965,287.425232 196.049667,281.572479 196.507416,275.727051 
	C201.005646,275.259308 205.207260,275.284729 209.066589,274.148010 
	C212.058365,273.266876 214.109161,273.489899 216.079254,275.707550 
M200.272278,355.895447 
	C200.382675,361.326813 201.546753,362.402557 205.754486,360.784760 
	C204.765793,360.193115 203.854324,359.647705 203.098526,359.195435 
	C204.451553,358.019196 205.832031,357.110107 206.717865,355.852570 
	C206.951065,355.521545 205.501511,353.273041 205.087799,353.348480 
	C203.524857,353.633331 202.070190,354.512238 200.272278,355.895447 
z"/>
<path fill="#E8B159" opacity="1.000000" stroke="none" 
	d="
M194.531433,1.000000 
	C195.002075,4.584855 194.904190,8.173133 195.026840,11.753859 
	C195.287643,19.367785 195.932480,26.978243 195.919556,34.589272 
	C195.905228,43.032280 195.333237,51.474346 194.558929,60.443901 
	C183.769318,62.769764 173.424866,64.568542 163.061844,65.875977 
	C163.028702,48.996342 162.949692,32.607677 163.045532,16.220037 
	C163.069031,12.200561 163.663940,8.184426 163.996155,4.166757 
	C167.214615,3.334276 170.433075,2.501795 173.325775,1.334657 
	C180.020950,1.000000 187.041901,1.000000 194.531433,1.000000 
z"/>
<path fill="#D9924E" opacity="1.000000" stroke="none" 
	d="
M344.049164,341.107086 
	C334.438049,352.115967 322.995789,360.920593 310.181763,368.601196 
	C309.071625,363.841339 308.063354,359.243591 308.082947,354.650269 
	C308.162140,336.081543 308.772736,317.514221 308.775757,298.946320 
	C308.778687,280.878174 308.246490,262.810425 308.015686,244.741638 
	C307.920715,237.305771 308.094421,229.865646 307.932739,222.432083 
	C307.892365,220.576141 307.025818,218.738174 306.644775,216.515533 
	C311.627167,202.437057 314.224274,188.364807 314.009888,173.769775 
	C313.797913,159.334946 310.442078,145.572693 306.034180,131.954071 
	C306.953583,129.867981 307.925751,127.910629 307.932434,125.949982 
	C308.030518,97.175346 307.952820,68.400040 308.092316,39.625748 
	C308.103119,37.395729 309.423767,35.172058 310.135620,32.945435 
	C322.844971,41.012264 334.383789,50.509129 344.649048,61.856964 
	C340.876038,69.871002 342.393860,77.877930 342.211273,85.703537 
	C342.085510,91.092010 342.201721,96.487152 342.263824,101.878693 
	C342.330383,107.654457 342.498138,113.429153 342.550629,119.204956 
	C342.592285,123.791229 342.509277,128.378494 342.513184,132.965286 
	C342.518341,139.061569 342.553436,145.157806 342.577026,151.254074 
	C342.594147,155.680664 342.628052,160.107254 342.628235,164.533844 
	C342.628540,170.790329 342.597748,177.046814 342.593353,183.303299 
	C342.590240,187.729904 342.614990,192.156525 342.616211,196.583130 
	C342.617950,202.839600 342.608521,209.096069 342.605591,215.352539 
	C342.603485,219.779175 342.601990,224.205795 342.604218,228.632431 
	C342.607361,234.888870 342.602539,241.145370 342.623596,247.401749 
	C342.637970,251.668213 342.721436,255.934555 342.719238,260.200928 
	C342.715912,266.617615 342.647675,273.034271 342.639740,279.450989 
	C342.634460,283.717377 342.708313,287.983795 342.707214,292.250214 
	C342.705627,298.666870 342.691650,305.083740 342.640472,311.500153 
	C342.603882,316.087158 342.206177,320.692352 342.498932,325.255432 
	C342.838348,330.545898 340.237457,336.160431 344.049164,341.107086 
z"/>
<path fill="#D58B4B" opacity="1.000000" stroke="none" 
	d="
M344.358551,340.970245 
	C340.237457,336.160431 342.838348,330.545898 342.498932,325.255432 
	C342.206177,320.692352 342.603882,316.087158 342.640472,311.500153 
	C342.691650,305.083740 342.705627,298.666870 342.707214,292.250214 
	C342.708313,287.983795 342.634460,283.717377 342.639740,279.450989 
	C342.647675,273.034271 342.715912,266.617615 342.719238,260.200928 
	C342.721436,255.934555 342.637970,251.668213 342.623596,247.401749 
	C342.602539,241.145370 342.607361,234.888870 342.604218,228.632431 
	C342.601990,224.205795 342.603485,219.779175 342.605591,215.352539 
	C342.608521,209.096069 342.617950,202.839600 342.616211,196.583130 
	C342.614990,192.156525 342.590240,187.729904 342.593353,183.303299 
	C342.597748,177.046814 342.628540,170.790329 342.628235,164.533844 
	C342.628052,160.107254 342.594147,155.680664 342.577026,151.254074 
	C342.553436,145.157806 342.518341,139.061569 342.513184,132.965286 
	C342.509277,128.378494 342.592285,123.791229 342.550629,119.204956 
	C342.498138,113.429153 342.330383,107.654457 342.263824,101.878693 
	C342.201721,96.487152 342.085510,91.092010 342.211273,85.703537 
	C342.393860,77.877930 340.876038,69.871002 344.790283,62.163151 
	C356.787415,72.873070 365.723724,85.891632 373.903168,99.492691 
	C374.485046,100.460236 375.161041,101.371162 375.825775,102.654320 
	C375.239166,104.549957 374.080994,106.098877 374.078674,107.649521 
	C373.987274,168.828400 373.983582,230.007446 374.097260,291.186249 
	C374.100220,292.775299 375.535034,294.361694 376.709167,295.994843 
	C371.164246,305.447540 365.554474,315.096497 359.139069,324.176178 
	C354.916046,330.153015 349.532074,335.309570 344.358551,340.970245 
z"/>
<path fill="#DC9950" opacity="1.000000" stroke="none" 
	d="
M309.974304,32.625481 
	C309.423767,35.172058 308.103119,37.395729 308.092316,39.625748 
	C307.952820,68.400040 308.030518,97.175346 307.932434,125.949982 
	C307.925751,127.910629 306.953583,129.867981 305.828796,131.694855 
	C298.101776,115.083748 287.784363,100.903366 274.575562,88.446884 
	C274.446594,79.988297 274.066315,71.954529 274.059570,63.920448 
	C274.054962,58.461269 274.833832,52.999981 274.798676,47.542618 
	C274.744659,39.146290 274.072968,30.750212 274.161255,22.359266 
	C274.183838,20.214228 276.077301,18.088879 277.111237,15.954486 
	C284.926788,19.656837 292.774567,23.293377 300.542328,27.093410 
	C303.721619,28.648733 306.727997,30.557529 309.974304,32.625481 
z"/>
<path fill="#DFA153" opacity="1.000000" stroke="none" 
	d="
M276.931854,15.630709 
	C276.077301,18.088879 274.183838,20.214228 274.161255,22.359266 
	C274.072968,30.750212 274.744659,39.146290 274.798676,47.542618 
	C274.833832,52.999981 274.054962,58.461269 274.059570,63.920448 
	C274.066315,71.954529 274.446594,79.988297 274.293121,88.237823 
	C262.262177,78.694489 249.108856,71.571671 234.905136,66.298561 
	C234.936783,48.224724 234.935623,30.150703 235.038651,12.077274 
	C235.052628,9.624111 235.588455,7.173923 235.963501,4.304339 
	C247.518265,6.877563 259.002441,9.830358 270.456909,12.894157 
	C272.616089,13.471684 274.656982,14.491304 276.931854,15.630709 
z"/>
<path fill="#DC9950" opacity="1.000000" stroke="none" 
	d="
M306.538971,216.891953 
	C307.025818,218.738174 307.892365,220.576141 307.932739,222.432083 
	C308.094421,229.865646 307.920715,237.305771 308.015686,244.741638 
	C308.246490,262.810425 308.778687,280.878174 308.775757,298.946320 
	C308.772736,317.514221 308.162140,336.081543 308.082947,354.650269 
	C308.063354,359.243591 309.071625,363.841339 309.869141,368.748169 
	C298.993927,374.956299 287.856995,380.853241 276.333282,386.392212 
	C275.700348,377.690979 275.276886,369.348083 275.257324,361.004242 
	C275.237244,352.453461 275.813965,343.900665 275.766754,335.350739 
	C275.698792,323.033081 275.084015,310.716736 275.109436,298.400696 
	C275.134521,286.239197 275.665466,274.078766 276.147095,261.638855 
	C289.320129,248.526581 299.759064,233.952560 306.538971,216.891953 
z"/>
<path fill="#DFA054" opacity="1.000000" stroke="none" 
	d="
M275.974487,261.917847 
	C275.665466,274.078766 275.134521,286.239197 275.109436,298.400696 
	C275.084015,310.716736 275.698792,323.033081 275.766754,335.350739 
	C275.813965,343.900665 275.237244,352.453461 275.257324,361.004242 
	C275.276886,369.348083 275.700348,377.690979 275.970276,386.433899 
	C264.934875,390.215759 253.875687,393.598022 242.405792,396.906860 
	C242.019440,385.094025 242.043823,373.354645 242.449631,361.285339 
	C245.639221,360.630829 248.447403,360.306244 251.881485,359.909302 
	C250.705795,357.213379 249.102371,353.536621 247.102219,348.950165 
	C245.564651,351.167267 244.836029,352.217896 244.107422,353.268555 
	C243.220963,349.592834 242.224686,345.938751 241.494156,342.232300 
	C241.127045,340.369659 241.243027,338.411835 241.490723,336.091064 
	C242.832733,335.631805 244.092636,335.942413 244.761063,335.450043 
	C246.185226,334.400940 247.302414,332.935059 248.545410,331.639984 
	C247.099060,330.824402 245.701324,329.417664 244.198090,329.294067 
	C237.147705,328.714325 234.498840,325.198425 236.698944,318.583282 
	C238.099945,314.370880 240.245438,311.064545 245.659470,311.981323 
	C246.558823,312.133575 248.551773,310.820465 248.558502,310.169189 
	C248.570923,308.963715 247.777039,307.126373 246.798676,306.671631 
	C245.073990,305.869995 242.958481,305.909271 241.006607,305.596497 
	C241.010834,296.382202 241.015076,287.167877 241.299438,277.331665 
	C245.050079,274.299835 248.906921,272.281555 251.870911,269.358063 
	C254.317657,266.944763 256.624054,265.632721 260.274994,266.277100 
	C263.787354,265.775116 266.982208,265.116852 270.526489,264.390259 
	C272.575439,263.520569 274.274963,262.719208 275.974487,261.917847 
M251.051590,312.719696 
	C252.652557,314.350494 254.253540,315.981293 255.854523,317.612061 
	C256.247498,317.363281 256.640472,317.114502 257.033478,316.865753 
	C257.337402,321.805542 257.469849,326.766174 258.065125,331.670624 
	C258.214996,332.905548 259.846680,333.960663 260.797394,335.098389 
	C261.886414,333.922272 263.766754,332.834351 263.909546,331.552795 
	C264.273926,328.282745 263.828461,324.926880 263.773346,321.604248 
	C263.727539,318.845001 263.170441,316.162903 266.991364,314.774841 
	C269.644592,313.811005 269.359344,310.878387 266.908112,309.833466 
	C264.016357,308.600800 264.078949,307.070007 264.394440,304.484833 
	C264.558044,303.144440 262.976349,301.591095 262.183105,300.133942 
	C260.888550,301.144073 259.519043,302.076324 258.342194,303.208771 
	C257.956207,303.580170 257.969421,304.471649 257.972778,305.124390 
	C257.988159,308.106354 257.334351,310.360962 253.607437,310.310699 
	C252.837814,310.300323 252.053574,311.375488 251.051590,312.719696 
z"/>
<path fill="#F2C660" opacity="1.000000" stroke="none" 
	d="
M61.958549,56.883717 
	C71.074875,49.325710 80.191200,41.767704 89.653336,34.631538 
	C90.022820,42.313637 89.941895,49.576168 90.099030,56.833538 
	C90.262817,64.398399 90.888199,71.958466 90.882332,79.520294 
	C90.876717,86.749031 90.219566,93.974792 90.034698,101.206619 
	C89.883232,107.131737 89.649872,113.092697 90.128288,118.982903 
	C90.457436,123.035286 91.941673,126.993843 92.842491,131.353195 
	C80.318420,163.114365 81.203186,194.208206 94.541039,225.028137 
	C93.103935,226.457825 91.273430,227.810669 91.172592,229.282028 
	C90.949532,232.536743 91.881355,235.855392 91.831291,239.140182 
	C91.711212,247.019287 91.148216,254.891785 91.037285,262.770813 
	C90.889442,273.270874 90.993233,283.774567 91.009247,294.276703 
	C91.011520,295.768219 91.135910,297.259308 91.190643,298.751068 
	C91.437103,305.468109 91.906227,312.186829 91.863014,318.902161 
	C91.812325,326.781525 91.060425,334.658630 91.078621,342.535645 
	C91.099121,351.407867 91.638855,360.278900 91.952728,369.150452 
	C82.037430,361.344727 72.122124,353.538971 62.092224,344.988312 
	C61.971264,248.456848 61.964905,152.670288 61.958549,56.883717 
z"/>
<path fill="#F5CD62" opacity="1.000000" stroke="none" 
	d="
M61.648544,57.018578 
	C61.964905,152.670288 61.971264,248.456848 61.968208,344.679749 
	C49.670574,334.345490 40.093925,321.344147 31.093410,307.438263 
	C31.274555,297.681122 31.610928,288.245514 31.892063,278.808289 
	C31.995287,275.343170 32.021137,271.873718 31.991077,268.407043 
	C31.828291,249.634766 31.499208,230.862793 31.495237,212.090652 
	C31.491478,194.317841 31.894392,176.545319 31.979382,158.772003 
	C32.070663,139.682877 32.016804,120.592957 31.974539,101.503502 
	C31.970184,99.536674 31.613228,97.570618 31.157339,95.276535 
	C39.294094,80.941910 49.436848,68.339272 61.648544,57.018578 
z"/>
<path fill="#E9B55B" opacity="1.000000" stroke="none" 
	d="
M169.003601,335.463440 
	C169.250122,340.123016 169.496658,344.782593 169.748581,350.132080 
	C168.064560,350.822021 166.375153,350.822021 164.533417,350.822021 
	C164.533417,354.183777 164.533417,357.742981 164.533417,361.302185 
	C165.856155,360.022491 165.703384,358.528900 166.267349,357.390411 
	C166.610565,356.697601 168.059311,356.552429 169.011475,356.161255 
	C169.007233,370.080048 169.003006,383.998810 168.998123,398.375641 
	C161.590408,397.217590 154.183350,395.601501 146.223450,393.747009 
	C145.436005,393.310638 145.174713,393.158447 144.886749,393.052063 
	C144.886749,393.052063 144.959457,393.035889 144.963348,392.595764 
	C144.978149,384.394531 144.862137,376.630066 145.065613,368.873962 
	C145.141617,365.976746 145.962845,363.099060 146.712296,360.459167 
	C148.413925,361.161835 149.847549,361.617828 151.281174,362.073853 
	C151.653793,361.549011 152.026413,361.024200 152.399033,360.499359 
	C151.300934,360.259705 150.202835,360.020050 150.332077,360.048248 
	C151.284927,357.716217 151.914932,356.174347 152.544922,354.632477 
	C150.685684,354.418488 148.826462,354.204498 146.656509,353.992310 
	C145.724380,353.994629 145.102951,353.995148 144.396179,353.652771 
	C144.168457,352.620758 144.026077,351.931641 143.974030,350.820618 
	C144.753540,345.434692 145.442673,340.470673 146.534088,335.596436 
	C157.260742,336.304565 165.521973,325.580994 162.112762,315.522095 
	C161.514038,313.755554 158.812027,312.701904 157.081360,311.319000 
	C156.440140,313.144226 155.670807,314.936188 155.186279,316.802094 
	C154.357407,319.994019 154.007263,323.349060 152.824432,326.389893 
	C152.389084,327.509064 150.164368,327.932190 148.755829,328.672791 
	C148.140350,327.274078 147.151581,325.919647 146.979218,324.468262 
	C146.456848,320.070068 146.250687,315.634338 145.919357,310.779175 
	C145.945343,298.572815 145.973297,286.800507 146.392059,275.056763 
	C155.807831,276.963684 157.401901,275.258331 155.305328,266.484619 
	C149.481888,242.114731 147.745346,217.655640 153.985367,193.048340 
	C154.379761,191.493088 154.148621,189.779236 154.176086,188.079773 
	C154.143677,188.020401 154.024063,188.083618 154.327942,188.015350 
	C154.919678,187.653854 155.207520,187.360641 155.727005,186.836395 
	C160.300751,180.385254 164.642853,174.165131 168.984924,167.945007 
	C168.989944,183.817627 168.904724,199.690918 169.023743,215.562683 
	C169.160431,233.791870 169.625580,252.019363 169.666214,270.248230 
	C169.694229,282.815491 169.243393,295.383850 168.609039,308.422852 
	C167.158569,310.473785 165.235504,312.038452 165.207840,313.635956 
	C165.104782,319.584167 165.443954,325.561371 166.041916,331.484802 
	C166.184418,332.896301 167.972443,334.141663 169.003601,335.463440 
M155.187225,359.952789 
	C156.121933,360.656006 157.056641,361.359192 158.306992,362.299866 
	C157.858398,357.879486 157.524551,354.589844 157.190704,351.300201 
	C156.507568,351.365845 155.824432,351.431519 155.141296,351.497192 
	C155.141296,354.056702 155.141296,356.616211 155.187225,359.952789 
z"/>
<path fill="#ECBB5E" opacity="1.000000" stroke="none" 
	d="
M146.444275,360.212463 
	C145.962845,363.099060 145.141617,365.976746 145.065613,368.873962 
	C144.862137,376.630066 144.978149,384.394531 144.951660,392.631104 
	C136.512360,390.126923 128.088638,387.147247 119.331833,383.562561 
	C118.737114,376.023651 118.380768,369.091675 118.241585,362.155365 
	C118.112885,355.741608 118.035843,349.315613 118.304665,342.910492 
	C118.416847,340.237610 119.482628,337.604706 120.519882,334.998840 
	C124.901588,335.696930 125.952309,333.364044 125.818733,330.070953 
	C125.666275,326.312500 125.331551,322.561462 125.160049,320.041656 
	C127.988678,318.334900 131.137604,317.512024 131.543762,315.967773 
	C132.416214,312.650574 129.024704,312.705902 126.753220,311.778778 
	C125.527893,311.278656 124.956535,309.176239 123.601883,307.019379 
	C127.735184,307.019379 130.405869,307.336426 132.949341,306.904449 
	C134.561356,306.630646 135.983932,305.241455 137.491455,304.352509 
	C136.137741,303.181610 134.890030,301.181885 133.410721,300.992676 
	C128.675354,300.386963 123.854187,300.451996 118.928818,299.898468 
	C118.527748,291.116943 118.209656,282.696320 118.021797,274.272736 
	C117.918701,269.649353 117.307152,264.856384 121.284355,261.236755 
	C122.583710,262.259369 123.478737,263.585724 124.617493,263.846130 
	C126.717041,264.326172 129.347565,264.913666 131.005859,264.036560 
	C132.104523,263.455505 132.454178,260.317627 132.175522,258.469696 
	C130.942459,250.292206 129.360550,242.167313 127.956619,233.681274 
	C127.964546,232.881790 127.920753,232.424408 127.908798,231.502258 
	C127.898422,225.365326 127.856216,219.693176 127.882263,213.646759 
	C127.961975,212.512421 127.973434,211.752350 128.156128,210.785736 
	C128.335861,210.065414 128.344376,209.551651 128.491241,208.608673 
	C130.284271,192.285553 134.091461,177.021118 142.115189,163.202499 
	C142.244232,171.721497 141.909653,179.961441 142.158325,188.183746 
	C142.218918,190.187149 144.195099,192.132629 145.271530,194.527222 
	C141.026276,218.573792 142.192474,242.127991 146.450684,264.303040 
	C143.582504,265.892242 141.535309,267.026581 139.488113,268.160919 
	C140.921402,270.069641 142.288727,272.034058 143.826096,273.854919 
	C144.320648,274.440613 145.263504,274.647858 146.001251,275.028229 
	C145.973297,286.800507 145.945343,298.572815 145.597260,310.629517 
	C143.577103,311.589783 140.870239,311.821899 140.344421,313.015137 
	C137.458969,319.563019 140.696259,331.216095 146.131821,335.506683 
	C145.442673,340.470673 144.753540,345.434692 143.626526,350.642548 
	C141.656906,350.822632 138.802231,350.592010 138.786179,350.719330 
	C138.344254,354.224396 138.191238,357.765930 137.924179,362.461609 
	C140.809250,358.736786 142.645386,356.366211 144.481537,353.995667 
	C145.102951,353.995148 145.724380,353.994629 146.548370,354.344666 
	C146.648727,356.534302 146.546509,358.373383 146.444275,360.212463 
z"/>
<path fill="#EFC15E" opacity="1.000000" stroke="none" 
	d="
M120.114815,334.953644 
	C119.482628,337.604706 118.416847,340.237610 118.304665,342.910492 
	C118.035843,349.315613 118.112885,355.741608 118.241585,362.155365 
	C118.380768,369.091675 118.737114,376.023651 118.998123,383.395874 
	C110.082054,379.150574 101.166595,374.466919 92.101936,369.466858 
	C91.638855,360.278900 91.099121,351.407867 91.078621,342.535645 
	C91.060425,334.658630 91.812325,326.781525 91.863014,318.902161 
	C91.906227,312.186829 91.437103,305.468109 91.190643,298.751068 
	C91.135910,297.259308 91.011520,295.768219 91.009247,294.276703 
	C90.993233,283.774567 90.889442,273.270874 91.037285,262.770813 
	C91.148216,254.891785 91.711212,247.019287 91.831291,239.140182 
	C91.881355,235.855392 90.949532,232.536743 91.172592,229.282028 
	C91.273430,227.810669 93.103935,226.457825 94.747528,225.322540 
	C96.330093,227.674622 96.992081,230.000137 98.353325,231.795471 
	C105.804115,241.622025 113.426529,251.318466 120.989975,261.059631 
	C117.307152,264.856384 117.918701,269.649353 118.021797,274.272736 
	C118.209656,282.696320 118.527748,291.116943 118.694557,300.174316 
	C118.109688,302.664886 117.175110,304.529266 117.213654,306.373291 
	C117.356079,313.186768 117.676361,320.005249 118.233315,326.796997 
	C118.458984,329.548798 119.464279,332.236664 120.114815,334.953644 
z"/>
<path fill="#ECBB5E" opacity="1.000000" stroke="none" 
	d="
M144.973480,393.302795 
	C145.174713,393.158447 145.436005,393.310638 145.824142,393.676636 
	C145.671844,393.747559 145.366028,393.650513 144.973480,393.302795 
z"/>
<path fill="#EFC15E" opacity="1.000000" stroke="none" 
	d="
M92.909637,130.994339 
	C91.941673,126.993843 90.457436,123.035286 90.128288,118.982903 
	C89.649872,113.092697 89.883232,107.131737 90.034698,101.206619 
	C90.219566,93.974792 90.876717,86.749031 90.882332,79.520294 
	C90.888199,71.958466 90.262817,64.398399 90.099030,56.833538 
	C89.941895,49.576168 90.022820,42.313637 89.998505,34.607521 
	C98.094803,29.519283 106.191734,24.876900 114.637566,20.608999 
	C114.818825,24.915808 114.542770,28.847006 114.501907,32.780647 
	C114.302315,51.998245 114.101593,71.216583 114.128975,90.434334 
	C114.131134,91.954315 115.870934,93.471817 116.713364,95.304169 
	C106.742065,106.084892 98.838615,117.877838 92.909637,130.994339 
z"/>
<path fill="#EBB85B" opacity="1.000000" stroke="none" 
	d="
M163.586914,4.096899 
	C163.663940,8.184426 163.069031,12.200561 163.045532,16.220037 
	C162.949692,32.607677 163.028702,48.996342 162.787155,66.075142 
	C154.366028,70.565025 146.201035,74.364403 137.874619,77.767792 
	C137.464111,67.680504 137.090149,57.990398 136.997223,48.297596 
	C136.878540,35.921879 136.986740,23.543983 136.997162,11.167026 
	C144.003799,9.112973 151.001633,7.028041 158.023483,5.027401 
	C159.700409,4.549613 161.457474,4.352986 163.586914,4.096899 
z"/>
<path fill="#EDBC5D" opacity="1.000000" stroke="none" 
	d="
M136.616486,11.100919 
	C136.986740,23.543983 136.878540,35.921879 136.997223,48.297596 
	C137.090149,57.990398 137.464111,67.680504 137.658386,78.014015 
	C130.670105,84.100975 123.736649,89.545723 116.803185,94.990479 
	C115.870934,93.471817 114.131134,91.954315 114.128975,90.434334 
	C114.101593,71.216583 114.302315,51.998245 114.501907,32.780647 
	C114.542770,28.847006 114.818825,24.915808 114.992043,20.575199 
	C122.077019,17.122881 129.156418,14.078846 136.616486,11.100919 
z"/>
<path fill="#E6AF59" opacity="1.000000" stroke="none" 
	d="
M196.063354,275.719757 
	C196.049667,281.572479 196.035965,287.425232 195.769363,293.938019 
	C190.395676,296.631226 188.224854,300.791229 187.117142,305.872345 
	C186.809799,307.282227 185.726517,308.522949 184.999207,309.841278 
	C184.666138,289.507782 184.291046,269.174866 184.019638,248.840576 
	C183.902756,240.084229 183.848053,231.320358 184.114868,222.570572 
	C184.176895,220.536255 185.665924,218.545456 187.058151,216.393433 
	C189.609039,217.241913 191.600143,218.231598 193.838043,219.446930 
	C195.394791,220.425858 196.704727,221.179169 197.941193,222.339691 
	C197.245209,227.820480 196.129303,232.891724 196.105652,237.968079 
	C196.060257,247.719223 196.634064,257.473236 196.555756,267.202423 
	C194.272186,268.090210 192.383881,269.001617 190.495590,269.913025 
	C191.908447,271.627899 193.296188,273.364685 194.754868,275.039673 
	C195.055252,275.384583 195.620300,275.499054 196.063354,275.719757 
z"/>
<path fill="#FDE7D2" opacity="1.000000" stroke="none" 
	d="
M193.591232,219.221283 
	C191.600143,218.231598 189.609039,217.241913 187.309860,216.122345 
	C184.991531,213.880859 182.724258,211.956619 181.021347,209.620941 
	C176.671326,203.654465 176.979675,202.815308 184.246841,199.444061 
	C191.095886,197.972214 194.220200,194.808914 195.445236,188.805115 
	C192.882080,185.662247 190.547119,182.799164 188.212158,179.936081 
	C185.380966,177.868820 182.813477,175.087936 179.650314,173.918991 
	C175.886154,172.527939 174.076187,170.303375 173.147278,166.091232 
	C172.598740,165.328583 172.278076,165.155823 171.676880,164.818314 
	C169.916351,163.054733 168.436371,161.455902 167.093811,159.621674 
	C167.587875,158.972595 167.944534,158.558914 168.630707,158.056671 
	C171.346268,156.917709 173.664932,155.656937 176.134140,154.866211 
	C179.838913,153.679794 182.531189,155.464691 181.738419,159.125595 
	C180.490128,164.890045 183.686020,166.650864 188.173676,168.354736 
	C190.667145,170.755905 192.974670,172.877762 195.217911,175.065552 
	C196.946014,176.750931 198.292923,179.182678 200.340347,180.109619 
	C204.349976,181.924850 205.020782,184.543701 204.343674,188.490997 
	C202.854553,197.171860 197.882736,203.078766 189.037796,207.244614 
	C192.606918,209.784622 195.348877,211.735962 198.025635,214.046143 
	C196.504044,216.010391 195.047638,217.615829 193.591232,219.221283 
z"/>
<path fill="#FDE6D1" opacity="1.000000" stroke="none" 
	d="
M184.700836,310.027954 
	C185.726517,308.522949 186.809799,307.282227 187.117142,305.872345 
	C188.224854,300.791229 190.395676,296.631226 195.779114,294.398438 
	C199.021683,295.277435 202.093201,296.174377 204.902695,297.591003 
	C205.451828,297.867889 205.305252,300.284851 204.845306,301.468201 
	C204.629333,302.023834 202.772964,302.431030 201.888687,302.159851 
	C195.164871,300.097595 194.330933,300.674164 193.466232,308.769043 
	C194.577469,309.229248 195.932419,309.510376 196.931580,310.263489 
	C198.907608,311.752899 199.413864,314.206146 196.807602,314.846832 
	C191.657745,316.112732 192.474167,319.920959 192.207275,323.405090 
	C191.921799,327.131744 191.730270,330.865631 191.255585,334.890228 
	C188.010117,335.576630 186.716782,333.899384 186.492416,331.227478 
	C186.271225,328.593414 186.539490,325.896271 186.107986,323.307617 
	C185.595993,320.236115 184.412216,317.279968 183.834686,314.214447 
	C183.598572,312.961334 184.188400,311.552582 184.700836,310.027954 
z"/>
<path fill="#FBE5D0" opacity="1.000000" stroke="none" 
	d="
M166.956390,159.857071 
	C168.436371,161.455902 169.916351,163.054733 171.605316,165.039276 
	C171.814301,165.425018 171.662415,165.864014 171.662415,165.864014 
	C170.866653,166.389969 170.070908,166.915939 169.130035,167.693466 
	C164.642853,174.165131 160.300751,180.385254 155.439072,186.943573 
	C154.621002,187.549042 154.322525,187.816330 154.024063,188.083618 
	C154.024063,188.083618 154.143677,188.020401 153.817596,188.091187 
	C151.093033,189.779678 148.694550,191.397369 146.258621,192.628662 
	C146.841797,189.849152 147.281494,187.390976 148.114227,185.074081 
	C151.819809,174.764145 157.470352,165.866745 166.956390,159.857071 
z"/>
<path fill="#FEE8D2" opacity="1.000000" stroke="none" 
	d="
M169.401154,335.324402 
	C167.972443,334.141663 166.184418,332.896301 166.041916,331.484802 
	C165.443954,325.561371 165.104782,319.584167 165.207840,313.635956 
	C165.235504,312.038452 167.158569,310.473785 168.609619,308.824890 
	C170.130554,309.672302 171.253403,310.588806 172.456406,311.570740 
	C173.655502,311.217438 174.997620,310.383820 176.147476,310.595367 
	C177.551117,310.853607 178.793289,311.989441 180.105286,312.745789 
	C179.381119,313.877533 178.867188,315.743073 177.898315,316.020630 
	C172.102386,317.680969 171.582932,321.731049 171.885773,326.852325 
	C172.049271,329.617157 173.899689,333.301819 169.401154,335.324402 
z"/>
<path fill="#E6AF59" opacity="1.000000" stroke="none" 
	d="
M187.798187,179.971863 
	C190.547119,182.799164 192.882080,185.662247 195.445236,188.805115 
	C194.220200,194.808914 191.095886,197.972214 184.460953,199.168076 
	C184.056732,194.304825 183.764038,189.363770 184.166473,184.480011 
	C184.295715,182.911484 186.259659,181.494156 187.798187,179.971863 
z"/>
<path fill="#FDE5CD" opacity="1.000000" stroke="none" 
	d="
M169.200470,355.955627 
	C168.059311,356.552429 166.610565,356.697601 166.267349,357.390411 
	C165.703384,358.528900 165.856155,360.022491 164.533417,361.302185 
	C164.533417,357.742981 164.533417,354.183777 164.533417,350.822021 
	C166.375153,350.822021 168.064560,350.822021 169.910065,350.529755 
	C171.639832,352.013824 173.213501,353.790131 174.833481,355.618744 
	C180.554474,352.844696 180.554474,352.844696 183.815491,361.893005 
	C179.888672,361.556946 176.345291,361.253723 172.498016,360.924500 
	C172.052429,359.354614 171.615967,357.604889 171.004547,355.918579 
	C170.923996,355.696411 169.949783,355.798248 169.200470,355.955627 
z"/>
<path fill="#FCE2C8" opacity="1.000000" stroke="none" 
	d="
M193.135590,351.535950 
	C194.794662,352.541321 196.395554,353.994568 198.414368,355.827209 
	C198.268311,356.916199 198.013153,358.818604 197.845779,360.066437 
	C196.269073,360.734131 194.955948,361.290192 193.363068,361.905579 
	C193.081345,358.637878 193.079376,355.310822 193.135590,351.535950 
z"/>
<path fill="#E9B55B" opacity="1.000000" stroke="none" 
	d="
M172.035828,165.904327 
	C171.662415,165.864014 171.814301,165.425018 171.885864,165.204041 
	C172.278076,165.155823 172.598740,165.328583 173.038849,165.750977 
	C172.908600,165.981934 172.658905,165.963272 172.035828,165.904327 
z"/>
<path fill="#FDE7D2" opacity="1.000000" stroke="none" 
	d="
M196.507401,275.727051 
	C195.620300,275.499054 195.055252,275.384583 194.754868,275.039673 
	C193.296188,273.364685 191.908447,271.627899 190.495590,269.913025 
	C192.383881,269.001617 194.272186,268.090210 196.880371,267.399353 
	C200.119522,267.619904 202.638779,267.619904 204.160690,267.619904 
	C204.696106,262.011688 204.455322,257.152496 205.748764,252.743378 
	C207.614166,246.384567 213.281036,243.517624 219.544022,241.193756 
	C232.773071,239.169632 243.351120,243.072266 251.496628,254.703247 
	C253.218307,240.082520 245.272308,229.538406 231.935303,226.496063 
	C229.309570,223.272461 231.260986,221.085648 233.406982,218.878632 
	C236.525543,219.869247 239.266327,220.850967 242.283661,222.039001 
	C256.400757,230.410706 262.464752,242.258255 258.997284,258.509399 
	C261.073059,258.716980 262.534302,258.863098 263.984283,259.366699 
	C262.634460,261.856384 261.295959,263.988617 259.957458,266.120850 
	C256.624054,265.632721 254.317657,266.944763 251.870911,269.358063 
	C248.906921,272.281555 245.050079,274.299835 241.294510,276.912292 
	C232.874374,278.270844 224.748962,279.232269 216.457443,275.811890 
	C214.109161,273.489899 212.058365,273.266876 209.066589,274.148010 
	C205.207260,275.284729 201.005646,275.259308 196.507401,275.727051 
M244.876907,258.757538 
	C237.471832,249.378403 228.983704,246.172226 219.883133,249.316757 
	C211.724548,252.135818 209.998581,260.219421 216.325470,265.979370 
	C224.152283,273.104858 237.902420,272.641724 245.393661,265.182190 
	C247.610565,262.974670 247.342255,261.265533 244.876907,258.757538 
z"/>
<path fill="#FEE8D4" opacity="1.000000" stroke="none" 
	d="
M215.404327,335.320007 
	C208.417618,332.323700 205.255356,323.504883 207.404144,313.986938 
	C208.503922,309.115540 210.810135,305.075806 215.864014,302.740601 
	C222.591064,302.698456 225.170898,304.922089 226.442627,310.927826 
	C228.807266,322.094910 219.159653,319.851166 212.933731,322.593994 
	C213.889328,324.697784 214.781204,326.661316 215.673065,328.624847 
	C217.461761,327.699036 219.185165,326.597809 221.058838,325.900360 
	C222.693680,325.291809 224.497879,325.138184 226.227264,324.783600 
	C225.898117,326.669525 226.227966,329.407959 225.109406,330.272644 
	C222.362701,332.395874 218.948837,333.656036 215.404327,335.320007 
M214.504074,312.193359 
	C215.098053,313.124390 215.822403,314.899200 216.262054,314.831268 
	C217.688950,314.610870 219.334412,313.995178 220.233871,312.957855 
	C220.663559,312.462250 219.601227,310.672943 219.214691,309.469635 
	C217.764236,310.155426 216.313782,310.841217 214.504074,312.193359 
z"/>
<path fill="#FDE7D2" opacity="1.000000" stroke="none" 
	d="
M240.671173,305.743835 
	C242.958481,305.909271 245.073990,305.869995 246.798676,306.671631 
	C247.777039,307.126373 248.570923,308.963715 248.558502,310.169189 
	C248.551773,310.820465 246.558823,312.133575 245.659470,311.981323 
	C240.245438,311.064545 238.099945,314.370880 236.698944,318.583282 
	C234.498840,325.198425 237.147705,328.714325 244.198090,329.294067 
	C245.701324,329.417664 247.099060,330.824402 248.545410,331.639984 
	C247.302414,332.935059 246.185226,334.400940 244.761063,335.450043 
	C244.092636,335.942413 242.832733,335.631805 241.450714,335.691376 
	C233.442001,333.444031 230.573868,330.273895 230.093155,323.575470 
	C229.549042,315.993530 233.453186,309.252869 240.671173,305.743835 
z"/>
<path fill="#FCE2C8" opacity="1.000000" stroke="none" 
	d="
M244.074524,353.620758 
	C244.836029,352.217896 245.564651,351.167267 247.102219,348.950165 
	C249.102371,353.536621 250.705795,357.213379 251.881485,359.909302 
	C248.447403,360.306244 245.639221,360.630829 242.476013,360.844849 
	C242.761185,358.480499 243.401428,356.226715 244.074524,353.620758 
z"/>
<path fill="#FBE1C6" opacity="1.000000" stroke="none" 
	d="
M227.235382,356.361877 
	C228.856949,355.109772 230.384705,354.232208 231.912460,353.354645 
	C232.626877,355.215271 233.837845,357.071869 233.853012,358.938171 
	C233.860992,359.919037 231.776733,360.916931 230.637238,361.907104 
	C229.472000,360.183563 228.306778,358.460022 227.235382,356.361877 
z"/>
<path fill="#F7DFC1" opacity="1.000000" stroke="none" 
	d="
M225.306610,350.766052 
	C224.033066,351.654083 222.720810,352.179718 220.982010,352.876251 
	C222.090103,353.844391 223.000626,354.639923 223.609482,355.171906 
	C222.188019,357.347900 220.924850,359.281616 219.661682,361.215302 
	C219.236801,361.238617 218.811935,361.261902 218.387054,361.285217 
	C218.387054,357.910431 217.971573,354.441284 218.700455,351.232025 
	C218.867477,350.496674 222.974274,350.656067 225.306610,350.766052 
z"/>
<path fill="#F7DFC1" opacity="1.000000" stroke="none" 
	d="
M212.985275,361.655914 
	C209.942474,360.795624 207.317200,355.487427 208.823349,352.990662 
	C209.192322,352.378967 211.227127,352.772217 212.798523,352.843140 
	C213.005737,353.398804 212.910477,353.814728 212.428635,354.667603 
	C212.345291,356.744965 212.648514,358.385376 212.951752,360.025818 
	C212.976120,360.460876 213.000504,360.895966 212.985275,361.655914 
z"/>
<path fill="#E5AC58" opacity="1.000000" stroke="none" 
	d="
M213.184738,359.783722 
	C212.648514,358.385376 212.345291,356.744965 212.327240,354.972656 
	C216.064148,355.862396 213.971298,357.833862 213.184738,359.783722 
z"/>
<path fill="#FEE8D4" opacity="1.000000" stroke="none" 
	d="
M116.713364,95.304169 
	C123.736649,89.545723 130.670105,84.100975 137.819794,78.410004 
	C146.201035,74.364403 154.366028,70.565025 162.805725,66.566490 
	C173.424866,64.568542 183.769318,62.769764 194.561035,60.901997 
	C208.327011,60.557697 221.352661,62.432026 234.515015,66.231995 
	C249.108856,71.571671 262.262177,78.694489 274.200928,88.662521 
	C287.784363,100.903366 298.101776,115.083748 305.432526,131.822052 
	C310.442078,145.572693 313.797913,159.334946 314.009888,173.769775 
	C314.224274,188.364807 311.627167,202.437057 306.644775,216.515533 
	C299.759064,233.952560 289.320129,248.526581 276.147095,261.638855 
	C274.274963,262.719208 272.575439,263.520569 270.350250,264.028320 
	C269.215454,261.795593 268.606323,259.856537 268.250854,257.710449 
	C270.769226,255.336700 273.033936,253.169998 275.609436,250.928055 
	C278.927521,247.397125 281.934906,243.941452 285.220764,240.255280 
	C309.593628,206.038696 313.604095,169.667236 296.985687,131.627090 
	C292.725372,121.875008 285.190063,113.553635 279.040894,104.281342 
	C273.326874,98.962898 267.731262,93.938080 261.940308,88.635086 
	C254.840134,84.524521 247.935333,80.692131 240.772400,76.622643 
	C230.032364,73.851494 219.550430,71.317459 208.693268,68.610413 
	C196.720978,67.344856 185.281281,68.221855 173.638580,71.244141 
	C162.491180,73.925377 152.215591,77.733353 142.678207,84.163658 
	C132.069778,90.527657 122.977272,98.143272 115.428490,108.006134 
	C75.302002,157.189865 90.960335,223.711914 121.780121,249.402206 
	C121.256157,242.540314 120.740990,235.793686 120.519928,229.034988 
	C121.206902,229.016495 121.599770,229.010086 122.145721,229.271271 
	C123.199432,230.361237 124.100067,231.183624 125.163452,232.269135 
	C126.185783,233.029312 127.045341,233.526352 127.904907,234.023407 
	C129.360550,242.167313 130.942459,250.292206 132.175522,258.469696 
	C132.454178,260.317627 132.104523,263.455505 131.005859,264.036560 
	C129.347565,264.913666 126.717041,264.326172 124.617493,263.846130 
	C123.478737,263.585724 122.583710,262.259369 121.284363,261.236755 
	C113.426529,251.318466 105.804115,241.622025 98.353325,231.795471 
	C96.992081,230.000137 96.330093,227.674622 95.138840,225.299454 
	C81.203186,194.208206 80.318420,163.114365 92.842491,131.353195 
	C98.838615,117.877838 106.742065,106.084892 116.713364,95.304169 
z"/>
<path fill="#FBE1C6" opacity="1.000000" stroke="none" 
	d="
M200.423630,355.532104 
	C202.070190,354.512238 203.524857,353.633331 205.087799,353.348480 
	C205.501511,353.273041 206.951065,355.521545 206.717865,355.852570 
	C205.832031,357.110107 204.451553,358.019196 203.098526,359.195435 
	C203.854324,359.647705 204.765793,360.193115 205.754486,360.784760 
	C201.546753,362.402557 200.382675,361.326813 200.423630,355.532104 
z"/>
<path fill="#FDE7D2" opacity="1.000000" stroke="none" 
	d="
M251.163834,312.335022 
	C252.053574,311.375488 252.837814,310.300323 253.607437,310.310699 
	C257.334351,310.360962 257.988159,308.106354 257.972778,305.124390 
	C257.969421,304.471649 257.956207,303.580170 258.342194,303.208771 
	C259.519043,302.076324 260.888550,301.144073 262.183105,300.133942 
	C262.976349,301.591095 264.558044,303.144440 264.394440,304.484833 
	C264.078949,307.070007 264.016357,308.600800 266.908112,309.833466 
	C269.359344,310.878387 269.644592,313.811005 266.991364,314.774841 
	C263.170441,316.162903 263.727539,318.845001 263.773346,321.604248 
	C263.828461,324.926880 264.273926,328.282745 263.909546,331.552795 
	C263.766754,332.834351 261.886414,333.922272 260.797394,335.098389 
	C259.846680,333.960663 258.214996,332.905548 258.065125,331.670624 
	C257.469849,326.766174 257.337402,321.805542 257.033478,316.865753 
	C256.640472,317.114502 256.247498,317.363281 255.854523,317.612061 
	C254.253540,315.981293 252.652557,314.350494 251.163834,312.335022 
z"/>
<path fill="#F6E0CB" opacity="1.000000" stroke="none" 
	d="
M267.997223,257.917450 
	C268.606323,259.856537 269.215454,261.795593 270.000793,264.096619 
	C266.982208,265.116852 263.787354,265.775116 260.274994,266.277100 
	C261.295959,263.988617 262.634460,261.856384 264.300598,259.217468 
	C265.751190,258.446320 266.874207,258.181885 267.997223,257.917450 
z"/>
<path fill="#FDE7D2" opacity="1.000000" stroke="none" 
	d="
M146.296082,193.015045 
	C148.694550,191.397369 151.093033,189.779678 153.850006,188.150574 
	C154.148621,189.779236 154.379761,191.493088 153.985367,193.048340 
	C147.745346,217.655640 149.481888,242.114731 155.305328,266.484619 
	C157.401901,275.258331 155.807831,276.963684 146.392075,275.056763 
	C145.263504,274.647858 144.320648,274.440613 143.826096,273.854919 
	C142.288727,272.034058 140.921402,270.069641 139.488113,268.160919 
	C141.535309,267.026581 143.582504,265.892242 146.450684,264.303040 
	C142.192474,242.127991 141.026276,218.573792 145.452881,194.360321 
	C145.853271,193.506882 146.067566,193.254929 146.296082,193.015045 
z"/>
<path fill="#FEE8D2" opacity="1.000000" stroke="none" 
	d="
M146.534088,335.596436 
	C140.696259,331.216095 137.458969,319.563019 140.344421,313.015137 
	C140.870239,311.821899 143.577103,311.589783 145.599243,311.063599 
	C146.250687,315.634338 146.456848,320.070068 146.979218,324.468262 
	C147.151581,325.919647 148.140350,327.274078 148.755829,328.672791 
	C150.164368,327.932190 152.389084,327.509064 152.824432,326.389893 
	C154.007263,323.349060 154.357407,319.994019 155.186279,316.802094 
	C155.670807,314.936188 156.440140,313.144226 157.081360,311.319000 
	C158.812027,312.701904 161.514038,313.755554 162.112762,315.522095 
	C165.521973,325.580994 157.260742,336.304565 146.534088,335.596436 
z"/>
<path fill="#FDE6D1" opacity="1.000000" stroke="none" 
	d="
M144.396179,353.652771 
	C142.645386,356.366211 140.809250,358.736786 137.924179,362.461609 
	C138.191238,357.765930 138.344254,354.224396 138.786179,350.719330 
	C138.802231,350.592010 141.656906,350.822632 143.536163,351.064453 
	C144.026077,351.931641 144.168457,352.620758 144.396179,353.652771 
z"/>
<path fill="#FCE2C8" opacity="1.000000" stroke="none" 
	d="
M146.712311,360.459167 
	C146.546509,358.373383 146.648727,356.534302 146.859085,354.342865 
	C148.826462,354.204498 150.685684,354.418488 152.544922,354.632477 
	C151.914932,356.174347 151.284927,357.716217 150.332077,360.048248 
	C150.202835,360.020050 151.300934,360.259705 152.399033,360.499359 
	C152.026413,361.024200 151.653793,361.549011 151.281174,362.073853 
	C149.847549,361.617828 148.413925,361.161835 146.712311,360.459167 
z"/>
<path fill="#FBE1C6" opacity="1.000000" stroke="none" 
	d="
M155.164261,359.564270 
	C155.141296,356.616211 155.141296,354.056702 155.141296,351.497192 
	C155.824432,351.431519 156.507568,351.365845 157.190704,351.300201 
	C157.524551,354.589844 157.858398,357.879486 158.306992,362.299866 
	C157.056641,361.359192 156.121933,360.656006 155.164261,359.564270 
z"/>
<path fill="#FDE7D2" opacity="1.000000" stroke="none" 
	d="
M154.327942,188.015350 
	C154.322525,187.816330 154.621002,187.549042 155.207413,187.174591 
	C155.207520,187.360641 154.919678,187.653854 154.327942,188.015350 
z"/>
<path fill="#FCE6D2" opacity="1.000000" stroke="none" 
	d="
M127.984894,210.992279 
	C127.973434,211.752350 127.961975,212.512421 127.561661,213.712616 
	C124.890213,215.439606 122.607620,216.726486 120.212761,217.760544 
	C120.034767,217.335419 119.969032,217.163116 119.959457,216.552490 
	C121.734253,204.739655 123.452881,193.365128 125.492355,181.873703 
	C126.550385,179.529358 127.287567,177.301910 128.082275,174.690506 
	C128.574265,172.826935 129.008713,171.347321 129.546967,169.765442 
	C129.781464,169.518784 129.903091,169.367126 130.085938,168.884186 
	C130.206345,168.344879 130.256516,168.129608 130.440674,167.802429 
	C130.742249,167.526932 130.889374,167.346649 131.081879,166.776947 
	C131.562195,165.232742 131.976700,164.061279 132.504349,162.791199 
	C132.760208,162.551498 132.892838,162.401474 133.182922,161.923279 
	C137.623398,154.088791 141.896362,146.573517 146.406235,138.826141 
	C147.965240,136.705124 149.047699,134.577942 150.649536,132.967255 
	C159.017059,124.553474 167.516449,116.270851 176.286346,107.822662 
	C178.763611,106.207245 180.739517,104.247215 183.118637,103.299721 
	C191.719681,99.874374 200.456284,96.789436 209.591705,93.516586 
	C221.368622,91.756714 231.070877,95.517487 240.036865,102.605972 
	C243.788422,107.848351 247.399857,112.791977 250.940277,117.785957 
	C254.835983,123.281097 255.107986,128.989960 252.448486,135.203659 
	C251.714890,136.917664 252.134857,139.670456 253.042358,141.418839 
	C254.545319,144.314423 256.873108,146.781891 258.920471,149.791016 
	C258.948486,153.073914 258.909393,155.995483 258.594940,159.109833 
	C252.881638,162.244339 247.443741,165.186096 241.553391,168.105957 
	C232.432785,169.961487 225.967575,163.664490 217.622513,160.902435 
	C217.944672,163.733002 217.900253,165.551788 218.388596,167.214050 
	C219.789001,171.981079 221.273636,176.732330 222.963150,181.403687 
	C226.889740,192.260284 226.855087,202.804810 220.576965,212.928284 
	C218.731445,211.076157 217.231293,209.292969 215.776794,207.139923 
	C218.879761,198.363647 218.205978,190.163055 214.961685,181.902054 
	C213.143402,177.272064 212.262161,172.281448 210.586655,167.586075 
	C208.662384,162.193527 209.613434,157.803238 214.477264,154.137756 
	C219.917664,151.880890 224.117386,154.619736 227.898819,157.079208 
	C236.735657,162.826660 244.261810,159.984756 252.137238,154.424469 
	C249.520401,150.387955 246.664444,146.683365 244.641388,142.569214 
	C243.615219,140.482330 243.075607,137.106171 244.073456,135.265717 
	C247.419525,129.094208 246.559555,123.849564 242.385132,118.629875 
	C240.203537,115.902008 238.561340,112.679474 236.120468,110.234436 
	C229.496429,103.599121 221.600037,100.050346 211.558578,101.695923 
	C209.102081,102.131821 207.048218,102.574196 204.774994,103.005753 
	C204.346191,103.340645 204.136780,103.686348 203.952820,104.268280 
	C203.978256,104.504501 204.101303,104.963478 203.750793,104.974106 
	C202.933273,104.989792 202.466263,104.994843 201.772308,104.745842 
	C200.281448,104.665855 198.920624,104.595200 197.768555,105.051559 
	C185.243134,110.013245 174.733292,117.793297 165.714783,128.182007 
	C155.816193,138.670609 147.267151,149.721420 141.866180,162.916946 
	C134.091461,177.021118 130.284271,192.285553 128.299377,208.697327 
	C127.974403,209.807541 127.979645,210.399918 127.984894,210.992279 
z"/>
<path fill="#EAB75C" opacity="1.000000" stroke="none" 
	d="
M142.115189,163.202499 
	C147.267151,149.721420 155.816193,138.670609 165.707520,128.607162 
	C165.665359,136.813736 165.125397,144.754440 165.171143,152.691788 
	C165.181656,154.515549 167.204437,156.327728 168.301178,158.145233 
	C167.944534,158.558914 167.587875,158.972595 167.093811,159.621674 
	C157.470352,165.866745 151.819809,174.764145 148.114227,185.074081 
	C147.281494,187.390976 146.841797,189.849152 146.258606,192.628662 
	C146.067566,193.254929 145.853271,193.506882 145.471863,193.937836 
	C144.195099,192.132629 142.218918,190.187149 142.158325,188.183746 
	C141.909653,179.961441 142.244232,171.721497 142.115189,163.202499 
z"/>
<path fill="#FEE8D2" opacity="1.000000" stroke="none" 
	d="
M120.519875,334.998840 
	C119.464279,332.236664 118.458984,329.548798 118.233315,326.796997 
	C117.676361,320.005249 117.356079,313.186768 117.213654,306.373291 
	C117.175110,304.529266 118.109688,302.664886 118.831879,300.533997 
	C123.854187,300.451996 128.675354,300.386963 133.410721,300.992676 
	C134.890030,301.181885 136.137741,303.181610 137.491455,304.352509 
	C135.983932,305.241455 134.561356,306.630646 132.949341,306.904449 
	C130.405869,307.336426 127.735184,307.019379 123.601883,307.019379 
	C124.956535,309.176239 125.527893,311.278656 126.753220,311.778778 
	C129.024704,312.705902 132.416214,312.650574 131.543762,315.967773 
	C131.137604,317.512024 127.988678,318.334900 125.160049,320.041656 
	C125.331551,322.561462 125.666275,326.312500 125.818733,330.070953 
	C125.952309,333.364044 124.901588,335.696930 120.519875,334.998840 
z"/>
<path fill="#FFEAD8" opacity="1.000000" stroke="none" 
	d="
M120.325027,218.013367 
	C122.607620,216.726486 124.890213,215.439606 127.493408,214.086868 
	C127.856216,219.693176 127.898422,225.365326 127.550262,231.511185 
	C126.440163,231.991928 125.720428,231.998962 125.000694,232.006012 
	C124.100067,231.183624 123.199432,230.361237 122.088547,228.987122 
	C121.349182,227.936661 120.820076,227.437927 120.226456,226.497467 
	C120.216309,223.374954 120.270668,220.694153 120.325027,218.013367 
z"/>
<path fill="#F7DFC1" opacity="1.000000" stroke="none" 
	d="
M125.163452,232.269135 
	C125.720428,231.998962 126.440163,231.991928 127.518433,231.975952 
	C127.920753,232.424408 127.964546,232.881790 127.956619,233.681290 
	C127.045341,233.526352 126.185783,233.029312 125.163452,232.269135 
z"/>
<path fill="#FDE7D1" opacity="1.000000" stroke="none" 
	d="
M128.156113,210.785736 
	C127.979645,210.399918 127.974403,209.807541 128.161011,209.126526 
	C128.344376,209.551651 128.335861,210.065414 128.156113,210.785736 
z"/>
<path fill="#E5AC58" opacity="1.000000" stroke="none" 
	d="
M219.085052,241.232498 
	C213.281036,243.517624 207.614166,246.384567 205.748764,252.743378 
	C204.455322,257.152496 204.696106,262.011688 204.160690,267.619904 
	C202.638779,267.619904 200.119522,267.619904 197.275635,267.422974 
	C196.634064,257.473236 196.060257,247.719223 196.105652,237.968079 
	C196.129303,232.891724 197.245209,227.820480 198.333542,222.373474 
	C204.867905,223.058487 210.936462,224.116974 217.003616,225.617065 
	C217.696487,231.116608 218.390762,236.174545 219.085052,241.232498 
z"/>
<path fill="#FCE5D1" opacity="1.000000" stroke="none" 
	d="
M217.005020,225.175446 
	C210.936462,224.116974 204.867905,223.058487 198.406998,221.966248 
	C196.704727,221.179169 195.394791,220.425858 193.838043,219.446930 
	C195.047638,217.615829 196.504044,216.010391 198.408112,214.136169 
	C211.511185,217.890656 209.153412,217.135803 215.412537,207.880203 
	C215.503159,207.746201 215.624268,207.632797 215.731140,207.509796 
	C217.231293,209.292969 218.731445,211.076157 220.465912,213.290039 
	C219.410004,216.168518 220.476959,216.811462 222.891800,217.079254 
	C226.295273,217.456680 229.652298,218.252670 233.029190,218.869705 
	C231.260986,221.085648 229.309570,223.272461 231.569275,226.382080 
	C226.515656,226.117126 221.760345,225.646286 217.005020,225.175446 
z"/>
<path fill="#E5AD59" opacity="1.000000" stroke="none" 
	d="
M215.776810,207.139923 
	C215.624268,207.632797 215.503159,207.746201 215.412537,207.880203 
	C209.153412,217.135803 211.511185,217.890656 198.473297,213.777344 
	C195.348877,211.735962 192.606918,209.784622 189.037796,207.244614 
	C197.882736,203.078766 202.854553,197.171860 204.343674,188.490997 
	C205.020782,184.543701 204.349976,181.924850 200.340347,180.109619 
	C198.292923,179.182678 196.946014,176.750931 195.217911,175.065552 
	C192.974670,172.877762 190.667145,170.755905 188.184448,167.877670 
	C187.987854,158.488388 187.860565,149.823502 188.095062,141.168396 
	C188.153046,139.027603 189.385529,136.918640 190.314209,135.038086 
	C192.068619,137.175629 193.586929,139.070145 195.313324,141.276428 
	C197.229813,142.045059 199.155182,143.244812 200.606445,142.821014 
	C205.151642,141.493729 209.518066,139.554230 213.944611,138.271072 
	C213.538483,143.874069 210.653412,149.086334 214.112778,154.226166 
	C209.613434,157.803238 208.662384,162.193527 210.586655,167.586075 
	C212.262161,172.281448 213.143402,177.272064 214.961685,181.902054 
	C218.205978,190.163055 218.879761,198.363647 215.776810,207.139923 
z"/>
<path fill="#E7B25B" opacity="1.000000" stroke="none" 
	d="
M190.078110,134.795044 
	C189.385529,136.918640 188.153046,139.027603 188.095062,141.168396 
	C187.860565,149.823502 187.987854,158.488388 187.970825,167.626740 
	C183.686020,166.650864 180.490128,164.890045 181.738419,159.125595 
	C182.531189,155.464691 179.838913,153.679794 176.134140,154.866211 
	C173.664932,155.656937 171.346268,156.917709 168.630707,158.056671 
	C167.204437,156.327728 165.181656,154.515549 165.171143,152.691788 
	C165.125397,144.754440 165.665359,136.813736 165.999786,128.449097 
	C174.733292,117.793297 185.243134,110.013245 197.768555,105.051559 
	C198.920624,104.595200 200.281448,104.665855 201.458069,104.862709 
	C199.086639,107.399529 197.074448,109.997574 194.461975,111.641853 
	C188.934387,115.120888 187.075394,119.986435 187.993286,126.107681 
	C188.433243,129.041702 189.367630,131.901581 190.078110,134.795044 
z"/>
<path fill="#E0A154" opacity="1.000000" stroke="none" 
	d="
M242.005829,168.127853 
	C247.443741,165.186096 252.881638,162.244339 258.853882,159.419525 
	C259.462738,165.223694 259.227905,170.936737 259.699738,176.590805 
	C260.161438,182.123459 261.343445,187.596008 261.949402,193.329926 
	C258.019592,195.697769 253.939362,197.109116 252.900421,202.251343 
	C250.899063,212.157318 252.336960,215.517288 262.071167,221.110214 
	C274.707306,228.370499 278.592102,237.149780 275.298676,251.003296 
	C273.033936,253.169998 270.769226,255.336700 268.250854,257.710449 
	C266.874207,258.181885 265.751190,258.446320 264.311890,258.859985 
	C262.534302,258.863098 261.073059,258.716980 258.997284,258.509399 
	C262.464752,242.258255 256.400757,230.410706 242.282120,221.584412 
	C242.004639,203.324951 242.005234,185.726395 242.005829,168.127853 
z"/>
<path fill="#E2A656" opacity="1.000000" stroke="none" 
	d="
M241.553391,168.105957 
	C242.005234,185.726395 242.004639,203.324951 242.005585,221.378082 
	C239.266327,220.850967 236.525543,219.869247 233.406982,218.878632 
	C229.652298,218.252670 226.295273,217.456680 222.891800,217.079254 
	C220.476959,216.811462 219.410004,216.168518 220.811264,213.358978 
	C226.855087,202.804810 226.889740,192.260284 222.963150,181.403687 
	C221.273636,176.732330 219.789001,171.981079 218.388596,167.214050 
	C217.900253,165.551788 217.944672,163.733002 217.622513,160.902435 
	C225.967575,163.664490 232.432785,169.961487 241.553391,168.105957 
z"/>
<path fill="#E3A858" opacity="1.000000" stroke="none" 
	d="
M245.095184,259.052917 
	C247.342255,261.265533 247.610565,262.974670 245.393661,265.182190 
	C237.902420,272.641724 224.152283,273.104858 216.325470,265.979370 
	C209.998581,260.219421 211.724548,252.135818 219.883133,249.316757 
	C228.983704,246.172226 237.471832,249.378403 245.095184,259.052917 
z"/>
<path fill="#E2A657" opacity="1.000000" stroke="none" 
	d="
M217.003616,225.617050 
	C221.760345,225.646286 226.515656,226.117126 231.637024,226.701950 
	C245.272308,229.538406 253.218307,240.082520 251.496628,254.703247 
	C243.351120,243.072266 232.773071,239.169632 219.544022,241.193756 
	C218.390762,236.174545 217.696487,231.116608 217.003616,225.617050 
z"/>
<path fill="#E5AD5A" opacity="1.000000" stroke="none" 
	d="
M214.683701,311.860199 
	C216.313782,310.841217 217.764236,310.155426 219.214691,309.469635 
	C219.601227,310.672943 220.663559,312.462250 220.233871,312.957855 
	C219.334412,313.995178 217.688950,314.610870 216.262054,314.831268 
	C215.822403,314.899200 215.098053,313.124390 214.683701,311.860199 
z"/>
<path fill="#DC9A51" opacity="1.000000" stroke="none" 
	d="
M279.159332,104.574974 
	C285.190063,113.553635 292.725372,121.875008 296.985687,131.627090 
	C313.604095,169.667236 309.593628,206.038696 285.080078,239.870667 
	C282.743713,234.882721 280.826599,230.048889 278.931274,224.746490 
	C278.635376,215.739426 278.152252,207.203125 278.039917,198.661942 
	C277.882172,186.670181 278.000031,174.674805 278.000000,162.680969 
	C278.000000,153.177567 277.849304,143.671127 278.041595,134.171616 
	C278.241394,124.302574 278.772888,114.440239 279.159332,104.574974 
z"/>
<path fill="#EFC05F" opacity="1.000000" stroke="none" 
	d="
M120.212769,217.760544 
	C120.270668,220.694153 120.216309,223.374954 120.151497,226.845062 
	C120.169304,228.105270 120.197563,228.576172 120.225822,229.047058 
	C120.740990,235.793686 121.256157,242.540314 121.780121,249.402206 
	C90.960335,223.711914 75.302002,157.189865 115.726028,108.333717 
	C116.522453,110.571831 116.966286,112.686668 116.969231,114.802109 
	C117.013634,146.708405 116.983055,178.614792 117.033463,210.521072 
	C117.037369,212.996994 116.053627,216.127472 119.903297,216.990814 
	C119.969032,217.163116 120.034767,217.335419 120.212769,217.760544 
z"/>
<path fill="#DE9E52" opacity="1.000000" stroke="none" 
	d="
M279.040894,104.281342 
	C278.772888,114.440239 278.241394,124.302574 278.041595,134.171616 
	C277.849304,143.671127 278.000000,153.177567 278.000000,162.680969 
	C278.000031,174.674805 277.882172,186.670181 278.039917,198.661942 
	C278.152252,207.203125 278.635376,215.739426 278.658295,224.541138 
	C273.910492,221.182541 269.267639,217.763779 265.084473,213.853256 
	C262.993103,211.898193 260.685730,209.173355 260.369293,206.566833 
	C259.947388,203.091599 263.131409,201.593460 266.462311,200.536209 
	C268.158661,199.997787 269.264160,197.597839 270.636719,196.039368 
	C268.819427,194.999496 267.065155,193.813828 265.155212,192.988327 
	C264.340759,192.636307 263.201141,193.036560 262.209290,193.094940 
	C261.343445,187.596008 260.161438,182.123459 259.699738,176.590805 
	C259.227905,170.936737 259.462738,165.223694 259.129272,159.226776 
	C258.909393,155.995483 258.948486,153.073914 258.973083,149.337982 
	C259.211426,143.775833 259.627472,139.029938 259.682648,134.279846 
	C259.793549,124.734070 259.426422,115.174690 259.809845,105.643188 
	C260.035065,100.044418 261.324738,94.488472 262.135651,88.913269 
	C267.731262,93.938080 273.326874,98.962898 279.040894,104.281342 
z"/>
<path fill="#EDBC5D" opacity="1.000000" stroke="none" 
	d="
M119.959457,216.552490 
	C116.053627,216.127472 117.037369,212.996994 117.033463,210.521072 
	C116.983055,178.614792 117.013634,146.708405 116.969231,114.802109 
	C116.966286,112.686668 116.522453,110.571831 115.986153,108.129135 
	C122.977272,98.143272 132.069778,90.527657 142.676559,84.621948 
	C143.281570,94.654533 143.613403,104.321045 143.820541,113.990227 
	C143.968018,120.875824 143.824661,127.769920 144.099045,134.648743 
	C144.158676,136.143723 145.446930,137.589706 146.169312,139.058258 
	C141.896362,146.573517 137.623398,154.088791 133.006348,161.948975 
	C132.403122,162.415756 132.312790,162.614395 132.391205,162.889801 
	C131.976700,164.061279 131.562195,165.232742 130.890808,166.826752 
	C130.365021,167.392319 130.255936,167.614014 130.306686,167.914337 
	C130.256516,168.129608 130.206345,168.344879 129.917236,168.921478 
	C129.428635,169.408920 129.350266,169.603882 129.443161,169.867706 
	C129.008713,171.347321 128.574265,172.826935 127.793633,174.873627 
	C126.688805,177.624008 125.930168,179.807312 125.171524,181.990601 
	C123.452881,193.365128 121.734253,204.739655 119.959457,216.552490 
z"/>
<path fill="#E9B55A" opacity="1.000000" stroke="none" 
	d="
M146.406235,138.826141 
	C145.446930,137.589706 144.158676,136.143723 144.099045,134.648743 
	C143.824661,127.769920 143.968018,120.875824 143.820541,113.990227 
	C143.613403,104.321045 143.281570,94.654533 143.004730,84.528595 
	C152.215591,77.733353 162.491180,73.925377 173.636688,71.689026 
	C174.002716,78.594574 173.748383,85.133278 174.078278,91.642372 
	C174.354599,97.093742 175.313400,102.510521 175.969986,107.942612 
	C167.516449,116.270851 159.017059,124.553474 150.649536,132.967255 
	C149.047699,134.577942 147.965240,136.705124 146.406235,138.826141 
z"/>
<path fill="#E6AE59" opacity="1.000000" stroke="none" 
	d="
M176.286346,107.822662 
	C175.313400,102.510521 174.354599,97.093742 174.078278,91.642372 
	C173.748383,85.133278 174.002716,78.594574 174.005890,71.623810 
	C185.281281,68.221855 196.720978,67.344856 208.674988,69.092758 
	C209.068527,77.690735 209.105103,85.633362 209.141693,93.575989 
	C200.456284,96.789436 191.719681,99.874374 183.118637,103.299721 
	C180.739517,104.247215 178.763611,106.207245 176.286346,107.822662 
z"/>
<path fill="#E0A154" opacity="1.000000" stroke="none" 
	d="
M261.940308,88.635086 
	C261.324738,94.488472 260.035065,100.044418 259.809845,105.643188 
	C259.426422,115.174690 259.793549,124.734070 259.682648,134.279846 
	C259.627472,139.029938 259.211426,143.775833 258.906006,148.976685 
	C256.873108,146.781891 254.545319,144.314423 253.042358,141.418839 
	C252.134857,139.670456 251.714890,136.917664 252.448486,135.203659 
	C255.107986,128.989960 254.835983,123.281097 250.940277,117.785957 
	C247.399857,112.791977 243.788422,107.848351 240.131882,102.172646 
	C240.344650,98.345276 240.786926,95.232750 240.888245,92.109169 
	C241.052994,87.029831 240.994690,81.943268 241.030533,76.859749 
	C247.935333,80.692131 254.840134,84.524521 261.940308,88.635086 
z"/>
<path fill="#E2A756" opacity="1.000000" stroke="none" 
	d="
M240.772400,76.622643 
	C240.994690,81.943268 241.052994,87.029831 240.888245,92.109169 
	C240.786926,95.232750 240.344650,98.345276 239.960449,101.896088 
	C231.070877,95.517487 221.368622,91.756714 209.591705,93.516586 
	C209.105103,85.633362 209.068527,77.690735 209.050232,69.265770 
	C219.550430,71.317459 230.032364,73.851494 240.772400,76.622643 
z"/>
<path fill="#FBE5D0" opacity="1.000000" stroke="none" 
	d="
M261.949402,193.329926 
	C263.201141,193.036560 264.340759,192.636307 265.155212,192.988327 
	C267.065155,193.813828 268.819427,194.999496 270.636719,196.039368 
	C269.264160,197.597839 268.158661,199.997787 266.462311,200.536209 
	C263.131409,201.593460 259.947388,203.091599 260.369293,206.566833 
	C260.685730,209.173355 262.993103,211.898193 265.084473,213.853256 
	C269.267639,217.763779 273.910492,221.182541 278.636536,225.009705 
	C280.826599,230.048889 282.743713,234.882721 284.801544,240.101166 
	C281.934906,243.941452 278.927521,247.397125 275.609436,250.928055 
	C278.592102,237.149780 274.707306,228.370499 262.071167,221.110214 
	C252.336960,215.517288 250.899063,212.157318 252.900421,202.251343 
	C253.939362,197.109116 258.019592,195.697769 261.949402,193.329926 
z"/>
<path fill="#F7DFC1" opacity="1.000000" stroke="none" 
	d="
M120.519928,229.034988 
	C120.197563,228.576172 120.169304,228.105270 120.216003,227.286804 
	C120.820076,227.437927 121.349182,227.936661 121.935471,228.719543 
	C121.599770,229.010086 121.206902,229.016495 120.519928,229.034988 
z"/>
<path fill="#E2A757" opacity="1.000000" stroke="none" 
	d="
M214.477264,154.137756 
	C210.653412,149.086334 213.538483,143.874069 214.119064,137.995285 
	C220.127213,131.853500 223.764923,125.356041 224.009140,117.207329 
	C224.094131,114.371506 223.846817,111.438568 220.348267,111.204620 
	C216.770325,110.965363 216.339905,113.807144 216.116241,116.690681 
	C215.951782,118.810982 215.298203,120.893341 214.471436,122.949196 
	C213.387344,121.447495 212.162323,120.012901 212.096130,118.526703 
	C211.846802,112.927696 211.974609,107.311905 211.961212,101.702393 
	C221.600037,100.050346 229.496429,103.599121 236.120468,110.234436 
	C238.561340,112.679474 240.203537,115.902008 242.385132,118.629875 
	C246.559555,123.849564 247.419525,129.094208 244.073456,135.265717 
	C243.075607,137.106171 243.615219,140.482330 244.641388,142.569214 
	C246.664444,146.683365 249.520401,150.387955 252.137238,154.424469 
	C244.261810,159.984756 236.735657,162.826660 227.898819,157.079208 
	C224.117386,154.619736 219.917664,151.880890 214.477264,154.137756 
z"/>
<path fill="#E5AD5A" opacity="1.000000" stroke="none" 
	d="
M211.558563,101.695923 
	C211.974609,107.311905 211.846802,112.927696 212.096130,118.526703 
	C212.162323,120.012901 213.387344,121.447495 214.461716,123.296753 
	C212.372330,129.565643 207.881287,133.200348 201.613556,135.211426 
	C194.452820,130.742004 193.945038,122.088242 199.996262,117.234886 
	C202.297150,115.389481 204.388809,113.132408 206.074570,110.713608 
	C207.742203,108.320854 207.496368,105.940155 204.101303,104.963478 
	C204.101303,104.963478 203.978256,104.504501 204.162445,104.133644 
	C204.610062,103.555298 204.825974,103.306557 204.994354,103.016563 
	C207.048218,102.574196 209.102081,102.131821 211.558563,101.695923 
z"/>
<path fill="#FDE7D2" opacity="1.000000" stroke="none" 
	d="
M203.750793,104.974106 
	C207.496368,105.940155 207.742203,108.320854 206.074570,110.713608 
	C204.388809,113.132408 202.297150,115.389481 199.996262,117.234886 
	C193.945038,122.088242 194.452820,130.742004 201.542114,135.528458 
	C199.594131,137.591446 197.349686,139.278061 195.105255,140.964676 
	C193.586929,139.070145 192.068619,137.175629 190.314209,135.038086 
	C189.367630,131.901581 188.433243,129.041702 187.993286,126.107681 
	C187.075394,119.986435 188.934387,115.120888 194.461975,111.641853 
	C197.074448,109.997574 199.086639,107.399529 201.685043,105.116760 
	C202.466263,104.994843 202.933273,104.989792 203.750793,104.974106 
z"/>
<path fill="#FDE7D1" opacity="1.000000" stroke="none" 
	d="
M125.492363,181.873703 
	C125.930168,179.807312 126.688805,177.624008 127.736099,175.257599 
	C127.287567,177.301910 126.550385,179.529358 125.492363,181.873703 
z"/>
<path fill="#E7B25B" opacity="1.000000" stroke="none" 
	d="
M204.774994,103.005753 
	C204.825974,103.306557 204.610062,103.555298 204.136993,103.897423 
	C204.136780,103.686348 204.346191,103.340645 204.774994,103.005753 
z"/>
<path fill="#FDE7D1" opacity="1.000000" stroke="none" 
	d="
M129.546967,169.765442 
	C129.350266,169.603882 129.428635,169.408920 129.846970,169.245514 
	C129.903091,169.367126 129.781464,169.518784 129.546967,169.765442 
z"/>
<path fill="#FDE7D1" opacity="1.000000" stroke="none" 
	d="
M130.440674,167.802429 
	C130.255936,167.614014 130.365021,167.392319 130.824982,167.199478 
	C130.889374,167.346649 130.742249,167.526932 130.440674,167.802429 
z"/>
<path fill="#FDE7D1" opacity="1.000000" stroke="none" 
	d="
M132.504349,162.791199 
	C132.312790,162.614395 132.403122,162.415756 132.838821,162.268219 
	C132.892838,162.401474 132.760208,162.551498 132.504349,162.791199 
z"/>
<path fill="#FBE5D0" opacity="1.000000" stroke="none" 
	d="
M195.313309,141.276428 
	C197.349686,139.278061 199.594131,137.591446 201.910034,135.587799 
	C207.881287,133.200348 212.372330,129.565643 214.852875,123.340164 
	C215.298203,120.893341 215.951782,118.810982 216.116241,116.690681 
	C216.339905,113.807144 216.770325,110.965363 220.348267,111.204620 
	C223.846817,111.438568 224.094131,114.371506 224.009140,117.207329 
	C223.764923,125.356041 220.127213,131.853500 214.128235,137.576141 
	C209.518066,139.554230 205.151642,141.493729 200.606445,142.821014 
	C199.155182,143.244812 197.229813,142.045059 195.313309,141.276428 
z"/>
</svg>